<?xml version="1.0" encoding="UTF-8"?>
<svg id="Capa_2" data-name="Capa 2" xmlns="http://www.w3.org/2000/svg" viewBox="0 0 455.8 92.71">
  <defs>
    <style>
      .cls-1 {
        fill: #fff;
      }

      .cls-2 {
        fill: #fcd400;
      }

      .cls-2, .cls-3 {
        fill-rule: evenodd;
      }

      .cls-3 {
        fill: #fcd504;
      }

      .cls-4 {
        fill: #cd181d;
      }

      .cls-5 {
        fill: #941635;
      }
    </style>
  </defs>
  <g id="Capa_2-2" data-name="Capa 2">
    <g>
      <path class="cls-5" d="m140.1,78.3c-3.6-.3-17.8-.3-20.4-2.8-1.9-1.8-4.8-3.3-7.3-3.7-1-.1-2-.3-3-.4-13.8-1.3-32.1,1.1-43.4-.1-1.1-.1-2.2-.3-3.2-.7-8.2-2.6-10.5-12.8-18.2-23.2-9.3-12.3-18.9-18.8-22.6-21.3-7.9-5.4-8.2-3.5-7.8-2.2.4,1.1,4.5,6.9,6.8,10-4.2-2.8-8.5-5.5-12.6-7.7-2.1,3.4-3.8,7-5.2,10.8,11.8,11.9,19,28.4-.7,35.4,2.2,6.9,5.7,13.3,10.2,18.8,1.4,1.7,2.4,1.5,2.4,1.5,8.1-1,16.8-4.5,24-6.2,11.7-2.9,23.7-6.5,36-6.3,9.5.2,19.6,2.2,29.4,2.8,3.3.2,6.7.3,9.9.1,4.8-.3,22.3-1.2,27.1-1.5,1.2-.1,10.4.1,10.1-.3-1.7-2.7-8.9-2.8-11.5-3"/>
      <path class="cls-4" d="m142.4,79.8c-3.6-.3-17.8-.3-20.4-2.8-1.9-1.8-4.8-3.3-7.3-3.7-1-.1-2-.3-3-.4-13.8-1.3-32.1,1.1-43.4-.1-1.1-.1-2.2-.3-3.2-.7-8.3-2.5-10.6-12.8-18.3-23.1-9.2-12.4-18.8-18.9-22.5-21.4-7.9-5.4-8.2-3.5-7.8-2.2.4,1.1,4.5,7,6.8,10.1-4.2-2.8-10.9-7-15-9.2-2.1,3.4-3.8,7-5.2,10.7,11.9,11.9,21.4,29.9,1.8,36.9,2.2,6.9,5.7,13.3,10.2,18.8,8.9-.9,18.4-2.8,26.4-4.8,11.7-2.9,23.7-6.5,36-6.3,9.5.2,19.6,2.2,29.4,2.8,3.4.2,6.7.3,9.9.1,4.8-.3,22.3-1.2,27.1-1.5,1.2-.1,10.4.1,10.1-.3-1.8-2.5-9-2.7-11.6-2.9"/>
      <path class="cls-3" d="m21,33.9c-2.3-3.1-6.5-8.8-6.8-10-.4-1.3-.1-3.2,7.8,2.2,3.7,2.5,13.3,9,22.5,21.4,7.7,10.3,10,20.5,18.2,23.2,1,.3,2.1.5,3.2.7,11.4,1.2,29.6-1.2,43.4.1,1.5-5,2.2-10.3,2.2-15.7C111.5,25,86.6,0,55.8,0,35.8,0,18.3,10.5,8.5,26.3c4,2.2,8.3,4.8,12.5,7.6"/>
      <path class="cls-2" d="m3.2,37c-2.1,5.9-3.2,12.2-3.2,18.8,0,5.8.9,11.4,2.5,16.7,19.7-7.1,12.5-23.6.7-35.5"/>
      <path class="cls-1" d="m48.9,44.1c8.4,10.7,11.1,21.4,19.8,24,.8.2,1.5.3,2.3.5-6.2-3.7-9-12.6-16-21.5-9.5-12.2-19.3-18.4-23-20.8-2.9-1.8-4.8-2.8-6-3.2,4.8,3,14,9.6,22.9,21"/>
      <path class="cls-1" d="m182.4,25.6c0,.5-.1.5-.5.6l-2.1.7c-.5.1-.6.1-1.3-.3-2.3-1.5-5.8-3.7-12.1-3.7-8.1,0-8.5,4.7-8.5,5.9,0,3.5,3.4,5.9,10,9.9,4.9,3,10.5,6.9,10.5,13.7,0,4.1-3.1,15.1-22.3,15.1-6.2,0-14.9-1-18.4-2.3-.8-.3-.8-.6-.8-1.3l-.1-6c0-.5.1-.5.6-.7l2.5-.8c.6-.2.9-.1,1.6.5,2,1.6,7.8,4.5,14,4.5,8.2,0,10.4-4.4,10.4-7.2,0-3.2-2.4-5.3-8.4-9-8.2-5.1-12-8.3-12-14.1,0-9,9.3-14.3,21.6-14.3,7.1,0,14.6,1.9,15.7,2.3.6.2.6.6.5,1.2l-.9,5.3h0Z"/>
      <path class="cls-1" d="m226.3,17.5l11.3,49h-13.2l-2.8-14h-22.1l-10.2,14h-11.7l38.2-49h10.5Zm-5.6,29.2l-3.6-18.8-13.4,18.8h17Z"/>
      <polygon class="cls-1" points="296.1 17.5 294.4 24.3 273.2 24.3 262.3 66.5 249.6 66.5 260.6 24.3 239.5 24.3 241.3 17.5 296.1 17.5"/>
      <polygon class="cls-1" points="341.4 17.5 339.7 24.1 312.7 24.1 309.1 37.9 333.5 37.9 331.8 44.1 307.5 44.1 303.4 59.9 332.8 59.9 331.1 66.5 289 66.5 301.8 17.5 341.4 17.5"/>
      <polygon class="cls-1" points="362.5 17.5 385.3 51.1 393.2 17.5 403.3 17.5 389.2 66.5 381.8 66.5 357.4 31.2 348.7 66.5 338.6 66.5 352.9 17.5 362.5 17.5"/>
      <path class="cls-1" d="m444,17.5l11.3,49h-13.2l-2.8-14h-22.1l-10.2,14h-11.7l38.2-49h10.5Zm-5.6,29.2l-3.6-18.8-13.4,18.8h17Z"/>
      <path class="cls-1" d="m170.1,75.3l-2.2,10.2h5.8l-.4,1.6h-8.3l2.6-11.7h2.5v-.1Z"/>
      <path class="cls-1" d="m182.2,75.3l2.3,11.7h-2.6l-.6-3.3h-4.4l-2,3.3h-2.3l7.6-11.7h2Zm-1.2,7l-.7-4.5-2.7,4.5h3.4Z"/>
      <path class="cls-1" d="m196.6,75.3l2.3,11.7h-2.6l-.6-3.3h-4.4l-2,3.3h-2.3l7.6-11.7h2Zm-1.1,7l-.7-4.5-2.7,4.5h3.4Z"/>
      <path class="cls-1" d="m209.8,75.3l-.3,1.6h-5.5l-.7,3.3h4.9l-.3,1.5h-4.9l-.8,3.8h5.9l-.3,1.6h-8.4l2.6-11.7h7.8v-.1h0Z"/>
      <path class="cls-1" d="m211.2,87.1h-2.5l2.6-11.7c.7,0,1.6-.1,4-.1,2,0,2.7.2,3.4.8.5.4.9,1.1.9,2,0,2.1-1.6,3.1-3.5,3.5,1.3,3.8,1.6,4.4,3.3,4.5v.1l-.2.7q-.1.2-.4.3c-.2.1-.5.1-.9.1-2.5,0-3.1-2.1-4.1-5.3h-1.4l-1.2,5.1h0Zm1.3-6.4c.3,0,.6.1,1.1.1.7,0,3.2,0,3.2-2.5,0-1.6-1-1.6-3.4-1.5,0-.1-.9,3.9-.9,3.9Z"/>
      <path class="cls-1" d="m230.4,76.2c1.1.9,1.8,2.3,1.8,3.8,0,3.4-2.6,7.2-7.6,7.2-1.2,0-2.5-.2-3.5-.9-1.6-1.1-1.8-2.9-1.8-4,0-1.3.4-3.6,2-5.1,1.2-1.2,3-2.1,5.3-2.1,1.4,0,2.7.2,3.8,1.1h0Zm-8.5,5.9c0,1.6.5,3.7,3.1,3.7,3.5,0,4.5-3.8,4.5-5.7,0-1.7-.7-3.5-3.2-3.5s-4.4,2.5-4.4,5.5Z"/>
      <path class="cls-1" d="m236.8,75.3l-2.2,10.2h5.8l-.4,1.6h-8.3l2.6-11.7h2.5v-.1h0Z"/>
      <path class="cls-1" d="m245.4,75.3l-2.5,11.7h-2.5l2.6-11.7h2.4Zm3.5-3.6v.5l-4.1,2.5-1-.2,2.8-3.6,2.3.8h0Z"/>
      <path class="cls-1" d="m249.2,75.3l4.6,8,1.6-8h2l-2.8,11.7h-1.6l-4.9-8.4-1.7,8.4h-2l2.9-11.7h1.9Z"/>
      <path class="cls-1" d="m266.8,75.3l-.3,1.6h-5.4l-.7,3.3h4.9l-.3,1.5h-4.8l-.8,3.8h5.9l-.3,1.6h-8.4l2.5-11.7h7.7v-.1h0Z"/>
      <path class="cls-1" d="m274.2,75.3l2.3,11.7h-2.6l-.5-3.3h-4.4l-2,3.3h-2.3l7.6-11.7h1.9Zm-1.2,7l-.7-4.5-2.7,4.5h3.4Z"/>
      <path class="cls-1" d="m282.8,75.3c.7,0,3-.1,3.9-.1,1.6,0,3,0,4.2.8.9.6,2,1.9,2,4.1,0,3.3-2.3,6.1-5.6,6.7-.5.1-1.2.2-2.3.2h-4.7l2.5-11.7q0,.1,0,0Zm.3,10.2c.6,0,1.1.1,1.6.1,1.4,0,2.4-.2,3.3-.7,1.4-.8,2.2-2.9,2.2-4.7,0-1.2-.3-2.4-1.4-3-.8-.4-1.6-.4-3.9-.4l-1.8,8.7h0Z"/>
      <path class="cls-1" d="m302.8,75.3l-.3,1.6h-5.4l-.7,3.3h4.9l-.3,1.5h-5l-.8,3.8h5.9l-.3,1.6h-8.4l2.5-11.7h7.9v-.1h0Z"/>
      <path class="cls-1" d="m310.1,75.3l-2.2,10.2h5.8l-.4,1.6h-8.3l2.5-11.7h2.6v-.1Z"/>
      <path class="cls-1" d="m324.9,76.2c1.1.9,1.8,2.3,1.8,3.8,0,3.4-2.5,7.2-7.6,7.2-1.2,0-2.5-.2-3.5-.9-1.5-1.1-1.8-2.9-1.8-4,0-1.3.4-3.6,2-5.1,1.2-1.2,3-2.1,5.3-2.1,1.4,0,2.7.2,3.8,1.1h0Zm-8.5,5.9c0,1.6.5,3.7,3.1,3.7,3.5,0,4.5-3.8,4.5-5.7,0-1.7-.7-3.5-3.2-3.5-2.7,0-4.4,2.5-4.4,5.5Z"/>
      <path class="cls-1" d="m335,77.3q0,.1-.1.2l-.4.2q-.1,0-.3-.1c-.5-.3-1.2-.9-2.4-.9-1.6,0-1.7,1.1-1.7,1.4,0,.8.7,1.4,2,2.4,1,.7,2.1,1.6,2.1,3.3,0,1-.6,3.6-4.5,3.6-1.2,0-3-.2-3.7-.6-.2-.1-.2-.2-.2-.3v-1.4q0-.1.1-.2l.5-.2c.1,0,.2,0,.3.1.4.4,1.5,1.1,2.8,1.1,1.6,0,2.1-1.1,2.1-1.7,0-.8-.5-1.3-1.7-2.1-1.6-1.2-2.4-2-2.4-3.4,0-2.1,1.9-3.4,4.3-3.4,1.4,0,2.9.4,3.1.6.1.1.1.2.1.3v1.1h0Z"/>
      <path class="cls-1" d="m349.3,77.4c0,.2-.1.2-.2.2h-.3c-.1,0-.2,0-.6-.3-1.1-.7-2.2-.7-2.8-.7-3.7,0-4.6,3.3-4.6,5.3,0,1.6.5,2.5,1.2,3.1.6.5,1.4.8,2.4.8.5,0,1.6-.1,2.7-.6.1-.1.5-.3.6-.3,0,0,.4.2.4.4l-.4,1.3c-.1.1-.1.2-.5.3-.8.2-2,.4-3.3.4-4.3,0-5.7-2.7-5.7-5.2,0-3.9,3.3-6.9,7.7-6.9,1.8,0,3.4.5,3.5.7.1,0,.1.1.1.3l-.2,1.2h0Z"/>
      <path class="cls-1" d="m359.8,76.2c1.1.9,1.8,2.3,1.8,3.8,0,3.4-2.5,7.2-7.6,7.2-1.2,0-2.5-.2-3.5-.9-1.5-1.1-1.8-2.9-1.8-4,0-1.3.4-3.6,2-5.1,1.2-1.2,3-2.1,5.3-2.1,1.5,0,2.7.2,3.8,1.1h0Zm-8.5,5.9c0,1.6.5,3.7,3.1,3.7,3.5,0,4.5-3.8,4.5-5.7,0-1.7-.7-3.5-3.2-3.5s-4.4,2.5-4.4,5.5Z"/>
      <path class="cls-1" d="m366.2,75.3l-2.2,10.2h5.8l-.4,1.6h-8.3l2.5-11.7h2.6v-.1Z"/>
      <path class="cls-1" d="m380.9,76.2c1.1.9,1.8,2.3,1.8,3.8,0,3.4-2.5,7.2-7.6,7.2-1.2,0-2.5-.2-3.5-.9-1.5-1.1-1.8-2.9-1.8-4,0-1.3.4-3.6,2-5.1,1.2-1.2,3-2.1,5.3-2.1,1.5,0,2.7.2,3.8,1.1h0Zm-8.5,5.9c0,1.6.5,3.7,3.1,3.7,3.5,0,4.5-3.8,4.5-5.7,0-1.7-.7-3.5-3.2-3.5-2.7,0-4.4,2.5-4.4,5.5Z"/>
      <path class="cls-1" d="m387.3,75.3l2.2,8.4,5.6-8.4h2.3l-1.7,11.7h-2.5l1.3-8.3-5.4,8.1-1.3.2-2-8.6-2,8.6h-2l3.4-11.7h2.1Z"/>
      <path class="cls-1" d="m399.6,75.3c.6,0,3-.1,3.7-.1,1.2,0,3.7,0,3.7,2.3,0,1.4-1.1,2.4-2.4,2.8,1.4.3,2.2,1.2,2.2,2.6,0,1.3-.7,2.6-2,3.3-1.3.7-2.9.7-3.8.7h-4l2.6-11.6q0,.1,0,0Zm.2,10.3c1.6,0,2,0,2.4-.1,2-.4,2-2.1,2-2.3,0-.3-.1-1-.7-1.4-.5-.3-1.1-.3-2.4-.3h-.4l-.9,4.1h0Zm1.2-5.5h.3c.5,0,1.5,0,2.1-.4.7-.4,1-1.2,1-1.8,0-.7-.4-1.2-1.4-1.2h-1.3l-.7,3.4h0Z"/>
      <path class="cls-1" d="m412.1,75.3l-2.5,11.7h-2.5l2.5-11.7h2.5Z"/>
      <path class="cls-1" d="m419.7,75.3l2.3,11.7h-2.6l-.5-3.3h-4.4l-2,3.3h-2.3l7.6-11.7h1.9Zm-1.1,7l-.7-4.5-2.7,4.5h3.4Z"/>
      <path class="cls-1" d="m427,75.3l4.5,8,1.6-8h2l-2.8,11.7h-1.5l-4.9-8.4-1.7,8.4h-2l2.9-11.7h1.9Z"/>
      <path class="cls-1" d="m445.7,76.2c1.1.9,1.8,2.3,1.8,3.8,0,3.4-2.5,7.2-7.6,7.2-1.2,0-2.5-.2-3.5-.9-1.5-1.1-1.8-2.9-1.8-4,0-1.3.4-3.6,2-5.1,1.2-1.2,3-2.1,5.3-2.1,1.4,0,2.7.2,3.8,1.1h0Zm-8.5,5.9c0,1.6.5,3.7,3.1,3.7,3.5,0,4.5-3.8,4.5-5.7,0-1.7-.7-3.5-3.2-3.5-2.7,0-4.4,2.5-4.4,5.5Z"/>
      <path class="cls-1" d="m455.8,77.3q0,.1-.1.2l-.4.2q-.1,0-.3-.1c-.5-.3-1.2-.9-2.4-.9-1.6,0-1.7,1.1-1.7,1.4,0,.8.7,1.4,2,2.4,1,.7,2.1,1.6,2.1,3.3,0,1-.6,3.6-4.5,3.6-1.2,0-3-.2-3.7-.6-.2-.1-.2-.2-.2-.3v-1.4q0-.1.1-.2l.5-.2c.1,0,.2,0,.3.1.4.4,1.5,1.1,2.8,1.1,1.6,0,2.1-1.1,2.1-1.7,0-.8-.5-1.3-1.7-2.1-1.6-1.2-2.4-2-2.4-3.4,0-2.1,1.9-3.4,4.3-3.4,1.4,0,2.9.4,3.1.6.1.1.1.2.1.3v1.1h0Z"/>
    </g>
  </g>
</svg>