<?xml version="1.0" encoding="utf-8"?>
<!-- Generator: Adobe Illustrator 27.2.0, SVG Export Plug-In . SVG Version: 6.00 Build 0)  -->
<svg version="1.1" id="Capa_2_00000183930077274868011940000015206775153125059507_"
	 xmlns="http://www.w3.org/2000/svg" xmlns:xlink="http://www.w3.org/1999/xlink" x="0px" y="0px" viewBox="0 0 456 92.7"
	 style="enable-background:new 0 0 456 92.7;" xml:space="preserve">
<style type="text/css">
	.st0{fill:#941635;}
	.st1{fill:#CD181D;}
	.st2{fill-rule:evenodd;clip-rule:evenodd;fill:#FCD504;}
	.st3{fill-rule:evenodd;clip-rule:evenodd;fill:#FCD400;}
	.st4{fill:#FFFFFF;}
</style>
<g>
	<path class="st0" d="M49.1-183.7c-3.6-0.3-17.8-0.3-20.4-2.8c-1.9-1.8-4.8-3.3-7.3-3.7c-1-0.1-2-0.3-3-0.4
		c-13.8-1.3-32.1,1.1-43.4-0.1c-1.1-0.1-2.2-0.3-3.2-0.7c-8.2-2.6-10.5-12.8-18.2-23.2c-9.3-12.3-18.9-18.8-22.6-21.3
		c-7.9-5.4-8.2-3.5-7.8-2.2c0.4,1.1,4.5,6.9,6.8,10c-4.2-2.8-8.5-5.5-12.6-7.7c-2.1,3.4-3.8,7-5.2,10.8c11.8,11.9,19,28.4-0.7,35.4
		c2.2,6.9,5.7,13.3,10.2,18.8c1.4,1.7,2.4,1.5,2.4,1.5c8.1-1,16.8-4.5,24-6.2c11.7-2.9,23.7-6.5,36-6.3c9.5,0.2,19.6,2.2,29.4,2.8
		c3.3,0.2,6.7,0.3,9.9,0.1c4.8-0.3,22.3-1.2,27.1-1.5c1.2-0.1,10.4,0.1,10.1-0.3C58.9-183.4,51.7-183.5,49.1-183.7"/>
	<path class="st1" d="M51.4-182.2c-3.6-0.3-17.8-0.3-20.4-2.8c-1.9-1.8-4.8-3.3-7.3-3.7c-1-0.1-2-0.3-3-0.4
		c-13.8-1.3-32.1,1.1-43.4-0.1c-1.1-0.1-2.2-0.3-3.2-0.7c-8.3-2.5-10.6-12.8-18.3-23.1c-9.2-12.4-18.8-18.9-22.5-21.4
		c-7.9-5.4-8.2-3.5-7.8-2.2c0.4,1.1,4.5,7,6.8,10.1c-4.2-2.8-10.9-7-15-9.2c-2.1,3.4-3.8,7-5.2,10.7c11.9,11.9,21.4,29.9,1.8,36.9
		c2.2,6.9,5.7,13.3,10.2,18.8c8.9-0.9,18.4-2.8,26.4-4.8c11.7-2.9,23.7-6.5,36-6.3c9.5,0.2,19.6,2.2,29.4,2.8
		c3.4,0.2,6.7,0.3,9.9,0.1c4.8-0.3,22.3-1.2,27.1-1.5c1.2-0.1,10.4,0.1,10.1-0.3C61.2-181.8,54-182,51.4-182.2"/>
	<path class="st2" d="M-70-228.1c-2.3-3.1-6.5-8.8-6.8-10c-0.4-1.3-0.1-3.2,7.8,2.2c3.7,2.5,13.3,9,22.5,21.4
		c7.7,10.3,10,20.5,18.2,23.2c1,0.3,2.1,0.5,3.2,0.7c11.4,1.2,29.6-1.2,43.4,0.1c1.5-5,2.2-10.3,2.2-15.7C20.5-237-4.4-262-35.2-262
		c-20,0-37.5,10.5-47.3,26.3C-78.5-233.5-74.2-230.9-70-228.1"/>
	<path class="st3" d="M-87.8-225c-2.1,5.9-3.2,12.2-3.2,18.8c0,5.8,0.9,11.4,2.5,16.7C-68.8-196.6-76-213.1-87.8-225"/>
	<path class="st4" d="M-42.1-217.9c8.4,10.7,11.1,21.4,19.8,24c0.8,0.2,1.5,0.3,2.3,0.5c-6.2-3.7-9-12.6-16-21.5
		c-9.5-12.2-19.3-18.4-23-20.8c-2.9-1.8-4.8-2.8-6-3.2C-60.2-235.9-51-229.3-42.1-217.9"/>
	<path class="st4" d="M91.4-236.4c0,0.5-0.1,0.5-0.5,0.6l-2.1,0.7c-0.5,0.1-0.6,0.1-1.3-0.3c-2.3-1.5-5.8-3.7-12.1-3.7
		c-8.1,0-8.5,4.7-8.5,5.9c0,3.5,3.4,5.9,10,9.9c4.9,3,10.5,6.9,10.5,13.7c0,4.1-3.1,15.1-22.3,15.1c-6.2,0-14.9-1-18.4-2.3
		c-0.8-0.3-0.8-0.6-0.8-1.3l-0.1-6c0-0.5,0.1-0.5,0.6-0.7l2.5-0.8c0.6-0.2,0.9-0.1,1.6,0.5c2,1.6,7.8,4.5,14,4.5
		c8.2,0,10.4-4.4,10.4-7.2c0-3.2-2.4-5.3-8.4-9c-8.2-5.1-12-8.3-12-14.1c0-9,9.3-14.3,21.6-14.3c7.1,0,14.6,1.9,15.7,2.3
		c0.6,0.2,0.6,0.6,0.5,1.2L91.4-236.4L91.4-236.4L91.4-236.4z"/>
	<path class="st4" d="M135.3-244.5l11.3,49h-13.2l-2.8-14h-22.1l-10.2,14H86.6l38.2-49H135.3L135.3-244.5z M129.7-215.3l-3.6-18.8
		l-13.4,18.8H129.7z"/>
	<polygon class="st4" points="205.1,-244.5 203.4,-237.7 182.2,-237.7 171.3,-195.5 158.6,-195.5 169.6,-237.7 148.5,-237.7 
		150.3,-244.5 	"/>
	<polygon class="st4" points="250.4,-244.5 248.7,-237.9 221.7,-237.9 218.1,-224.1 242.5,-224.1 240.8,-217.9 216.5,-217.9 
		212.4,-202.1 241.8,-202.1 240.1,-195.5 198,-195.5 210.8,-244.5 	"/>
	<polygon class="st4" points="271.5,-244.5 294.3,-210.9 302.2,-244.5 312.3,-244.5 298.2,-195.5 290.8,-195.5 266.4,-230.8 
		257.7,-195.5 247.6,-195.5 261.9,-244.5 	"/>
	<path class="st4" d="M353-244.5l11.3,49h-13.2l-2.8-14h-22.1l-10.2,14h-11.7l38.2-49H353z M347.4-215.3l-3.6-18.8l-13.4,18.8H347.4
		z"/>
	<path class="st4" d="M79.1-186.7l-2.2,10.2h5.8l-0.4,1.6H74l2.6-11.7h2.5V-186.7z"/>
	<path class="st4" d="M91.2-186.7l2.3,11.7h-2.6l-0.6-3.3h-4.4l-2,3.3h-2.3l7.6-11.7H91.2L91.2-186.7z M90-179.7l-0.7-4.5l-2.7,4.5
		H90z"/>
	<path class="st4" d="M105.6-186.7l2.3,11.7h-2.6l-0.6-3.3h-4.4l-2,3.3H96l7.6-11.7H105.6L105.6-186.7z M104.5-179.7l-0.7-4.5
		l-2.7,4.5H104.5z"/>
	<path class="st4" d="M118.8-186.7l-0.3,1.6H113l-0.7,3.3h4.9l-0.3,1.5H112l-0.8,3.8h5.9l-0.3,1.6h-8.4l2.6-11.7h7.8V-186.7
		L118.8-186.7z"/>
	<path class="st4" d="M120.2-174.9h-2.5l2.6-11.7c0.7,0,1.6-0.1,4-0.1c2,0,2.7,0.2,3.4,0.8c0.5,0.4,0.9,1.1,0.9,2
		c0,2.1-1.6,3.1-3.5,3.5c1.3,3.8,1.6,4.4,3.3,4.5v0.1l-0.2,0.7c-0.1,0.2-0.1,0.2-0.4,0.3c-0.2,0.1-0.5,0.1-0.9,0.1
		c-2.5,0-3.1-2.1-4.1-5.3c-0.4,0-0.8,0-1.4,0L120.2-174.9L120.2-174.9L120.2-174.9z M121.5-181.3c0.3,0,0.6,0.1,1.1,0.1
		c0.7,0,3.2,0,3.2-2.5c0-1.6-1-1.6-3.4-1.5C122.4-185.3,121.5-181.3,121.5-181.3z"/>
	<path class="st4" d="M139.4-185.8c1.1,0.9,1.8,2.3,1.8,3.8c0,3.4-2.6,7.2-7.6,7.2c-1.2,0-2.5-0.2-3.5-0.9c-1.6-1.1-1.8-2.9-1.8-4
		c0-1.3,0.4-3.6,2-5.1c1.2-1.2,3-2.1,5.3-2.1C137-186.9,138.3-186.7,139.4-185.8L139.4-185.8L139.4-185.8z M130.9-179.9
		c0,1.6,0.5,3.7,3.1,3.7c3.5,0,4.5-3.8,4.5-5.7c0-1.7-0.7-3.5-3.2-3.5C132.7-185.4,130.9-182.9,130.9-179.9z"/>
	<path class="st4" d="M145.8-186.7l-2.2,10.2h5.8l-0.4,1.6h-8.3l2.6-11.7h2.5V-186.7L145.8-186.7z"/>
	<path class="st4" d="M154.4-186.7l-2.5,11.7h-2.5l2.6-11.7H154.4z M157.9-190.3v0.5l-4.1,2.5l-1-0.2l2.8-3.6L157.9-190.3
		L157.9-190.3L157.9-190.3z"/>
	<path class="st4" d="M158.2-186.7l4.6,8l1.6-8h2l-2.8,11.7H162l-4.9-8.4l-1.7,8.4h-2l2.9-11.7H158.2L158.2-186.7z"/>
	<path class="st4" d="M175.8-186.7l-0.3,1.6h-5.4l-0.7,3.3h4.9l-0.3,1.5h-4.8l-0.8,3.8h5.9l-0.3,1.6h-8.4l2.5-11.7h7.7V-186.7
		L175.8-186.7z"/>
	<path class="st4" d="M183.2-186.7l2.3,11.7h-2.6l-0.5-3.3H178l-2,3.3h-2.3l7.6-11.7H183.2L183.2-186.7L183.2-186.7z M182-179.7
		l-0.7-4.5l-2.7,4.5H182z"/>
	<path class="st4" d="M191.8-186.7c0.7,0,3-0.1,3.9-0.1c1.6,0,3,0,4.2,0.8c0.9,0.6,2,1.9,2,4.1c0,3.3-2.3,6.1-5.6,6.7
		c-0.5,0.1-1.2,0.2-2.3,0.2c-0.9,0-4.3,0-4.7,0L191.8-186.7C191.8-186.6,191.8-186.6,191.8-186.7z M192.1-176.5
		c0.6,0,1.1,0.1,1.6,0.1c1.4,0,2.4-0.2,3.3-0.7c1.4-0.8,2.2-2.9,2.2-4.7c0-1.2-0.3-2.4-1.4-3c-0.8-0.4-1.6-0.4-3.9-0.4L192.1-176.5
		L192.1-176.5L192.1-176.5z"/>
	<path class="st4" d="M211.8-186.7l-0.3,1.6h-5.4l-0.7,3.3h4.9l-0.3,1.5h-5l-0.8,3.8h5.9l-0.3,1.6h-8.4l2.5-11.7h7.9V-186.7
		L211.8-186.7z"/>
	<path class="st4" d="M219.1-186.7l-2.2,10.2h5.8l-0.4,1.6H214l2.5-11.7h2.6V-186.7z"/>
	<path class="st4" d="M233.9-185.8c1.1,0.9,1.8,2.3,1.8,3.8c0,3.4-2.5,7.2-7.6,7.2c-1.2,0-2.5-0.2-3.5-0.9c-1.5-1.1-1.8-2.9-1.8-4
		c0-1.3,0.4-3.6,2-5.1c1.2-1.2,3-2.1,5.3-2.1C231.5-186.9,232.8-186.7,233.9-185.8L233.9-185.8L233.9-185.8z M225.4-179.9
		c0,1.6,0.5,3.7,3.1,3.7c3.5,0,4.5-3.8,4.5-5.7c0-1.7-0.7-3.5-3.2-3.5C227.1-185.4,225.4-182.9,225.4-179.9z"/>
	<path class="st4" d="M244-184.7c0,0.1,0,0.1-0.1,0.2l-0.4,0.2c-0.1,0-0.1,0-0.3-0.1c-0.5-0.3-1.2-0.9-2.4-0.9
		c-1.6,0-1.7,1.1-1.7,1.4c0,0.8,0.7,1.4,2,2.4c1,0.7,2.1,1.6,2.1,3.3c0,1-0.6,3.6-4.5,3.6c-1.2,0-3-0.2-3.7-0.6
		c-0.2-0.1-0.2-0.2-0.2-0.3v-1.4c0-0.1,0-0.1,0.1-0.2l0.5-0.2c0.1,0,0.2,0,0.3,0.1c0.4,0.4,1.5,1.1,2.8,1.1c1.6,0,2.1-1.1,2.1-1.7
		c0-0.8-0.5-1.3-1.7-2.1c-1.6-1.2-2.4-2-2.4-3.4c0-2.1,1.9-3.4,4.3-3.4c1.4,0,2.9,0.4,3.1,0.6c0.1,0.1,0.1,0.2,0.1,0.3L244-184.7
		L244-184.7L244-184.7z"/>
	<path class="st4" d="M258.3-184.6c0,0.2-0.1,0.2-0.2,0.2h-0.3c-0.1,0-0.2,0-0.6-0.3c-1.1-0.7-2.2-0.7-2.8-0.7
		c-3.7,0-4.6,3.3-4.6,5.3c0,1.6,0.5,2.5,1.2,3.1c0.6,0.5,1.4,0.8,2.4,0.8c0.5,0,1.6-0.1,2.7-0.6c0.1-0.1,0.5-0.3,0.6-0.3
		c0,0,0.4,0.2,0.4,0.4l-0.4,1.3c-0.1,0.1-0.1,0.2-0.5,0.3c-0.8,0.2-2,0.4-3.3,0.4c-4.3,0-5.7-2.7-5.7-5.2c0-3.9,3.3-6.9,7.7-6.9
		c1.8,0,3.4,0.5,3.5,0.7c0.1,0,0.1,0.1,0.1,0.3L258.3-184.6L258.3-184.6L258.3-184.6z"/>
	<path class="st4" d="M268.8-185.8c1.1,0.9,1.8,2.3,1.8,3.8c0,3.4-2.5,7.2-7.6,7.2c-1.2,0-2.5-0.2-3.5-0.9c-1.5-1.1-1.8-2.9-1.8-4
		c0-1.3,0.4-3.6,2-5.1c1.2-1.2,3-2.1,5.3-2.1C266.5-186.9,267.7-186.7,268.8-185.8L268.8-185.8L268.8-185.8z M260.3-179.9
		c0,1.6,0.5,3.7,3.1,3.7c3.5,0,4.5-3.8,4.5-5.7c0-1.7-0.7-3.5-3.2-3.5C262.1-185.4,260.3-182.9,260.3-179.9z"/>
	<path class="st4" d="M275.2-186.7l-2.2,10.2h5.8l-0.4,1.6h-8.3l2.5-11.7h2.6V-186.7z"/>
	<path class="st4" d="M289.9-185.8c1.1,0.9,1.8,2.3,1.8,3.8c0,3.4-2.5,7.2-7.6,7.2c-1.2,0-2.5-0.2-3.5-0.9c-1.5-1.1-1.8-2.9-1.8-4
		c0-1.3,0.4-3.6,2-5.1c1.2-1.2,3-2.1,5.3-2.1C287.6-186.9,288.8-186.7,289.9-185.8L289.9-185.8L289.9-185.8z M281.4-179.9
		c0,1.6,0.5,3.7,3.1,3.7c3.5,0,4.5-3.8,4.5-5.7c0-1.7-0.7-3.5-3.2-3.5C283.1-185.4,281.4-182.9,281.4-179.9z"/>
	<path class="st4" d="M296.3-186.7l2.2,8.4l5.6-8.4h2.3l-1.7,11.7h-2.5l1.3-8.3l-5.4,8.1l-1.3,0.2l-2-8.6l-2,8.6h-2l3.4-11.7H296.3
		L296.3-186.7z"/>
	<path class="st4" d="M308.6-186.7c0.6,0,3-0.1,3.7-0.1c1.2,0,3.7,0,3.7,2.3c0,1.4-1.1,2.4-2.4,2.8c1.4,0.3,2.2,1.2,2.2,2.6
		c0,1.3-0.7,2.6-2,3.3s-2.9,0.7-3.8,0.7c-0.2,0-1,0-1.9,0c-0.9,0-1.8,0-2.1,0L308.6-186.7C308.6-186.6,308.6-186.6,308.6-186.7z
		 M308.8-176.4c1.6,0,2,0,2.4-0.1c2-0.4,2-2.1,2-2.3c0-0.3-0.1-1-0.7-1.4c-0.5-0.3-1.1-0.3-2.4-0.3h-0.4L308.8-176.4L308.8-176.4
		L308.8-176.4z M310-181.9h0.3c0.5,0,1.5,0,2.1-0.4c0.7-0.4,1-1.2,1-1.8c0-0.7-0.4-1.2-1.4-1.2h-1.3L310-181.9L310-181.9z"/>
	<path class="st4" d="M321.1-186.7l-2.5,11.7h-2.5l2.5-11.7H321.1z"/>
	<path class="st4" d="M328.7-186.7L331-175h-2.6l-0.5-3.3h-4.4l-2,3.3h-2.3l7.6-11.7H328.7L328.7-186.7L328.7-186.7z M327.6-179.7
		l-0.7-4.5l-2.7,4.5H327.6z"/>
	<path class="st4" d="M336-186.7l4.5,8l1.6-8h2l-2.8,11.7h-1.5l-4.9-8.4l-1.7,8.4h-2l2.9-11.7H336z"/>
	<path class="st4" d="M354.7-185.8c1.1,0.9,1.8,2.3,1.8,3.8c0,3.4-2.5,7.2-7.6,7.2c-1.2,0-2.5-0.2-3.5-0.9c-1.5-1.1-1.8-2.9-1.8-4
		c0-1.3,0.4-3.6,2-5.1c1.2-1.2,3-2.1,5.3-2.1C352.3-186.9,353.6-186.7,354.7-185.8L354.7-185.8L354.7-185.8z M346.2-179.9
		c0,1.6,0.5,3.7,3.1,3.7c3.5,0,4.5-3.8,4.5-5.7c0-1.7-0.7-3.5-3.2-3.5C347.9-185.4,346.2-182.9,346.2-179.9z"/>
	<path class="st4" d="M364.8-184.7c0,0.1,0,0.1-0.1,0.2l-0.4,0.2c-0.1,0-0.1,0-0.3-0.1c-0.5-0.3-1.2-0.9-2.4-0.9
		c-1.6,0-1.7,1.1-1.7,1.4c0,0.8,0.7,1.4,2,2.4c1,0.7,2.1,1.6,2.1,3.3c0,1-0.6,3.6-4.5,3.6c-1.2,0-3-0.2-3.7-0.6
		c-0.2-0.1-0.2-0.2-0.2-0.3v-1.4c0-0.1,0-0.1,0.1-0.2l0.5-0.2c0.1,0,0.2,0,0.3,0.1c0.4,0.4,1.5,1.1,2.8,1.1c1.6,0,2.1-1.1,2.1-1.7
		c0-0.8-0.5-1.3-1.7-2.1c-1.6-1.2-2.4-2-2.4-3.4c0-2.1,1.9-3.4,4.3-3.4c1.4,0,2.9,0.4,3.1,0.6c0.1,0.1,0.1,0.2,0.1,0.3L364.8-184.7
		L364.8-184.7L364.8-184.7z"/>
</g>
</svg>
