<?xml version="1.0" encoding="utf-8"?>
<!-- Generator: Adobe Illustrator 27.5.0, SVG Export Plug-In . SVG Version: 6.00 Build 0)  -->
<svg version="1.1" id="Capa_2_00000145743196756901113710000016132183471227935671_"
	 xmlns="http://www.w3.org/2000/svg" xmlns:xlink="http://www.w3.org/1999/xlink" x="0px" y="0px" viewBox="0 0 455.8 92.7"
	 style="enable-background:new 0 0 455.8 92.7;" xml:space="preserve">
<style type="text/css">
	.st0{fill:#80002E;}
	.st1{fill:#AF001F;}
	.st2{fill-rule:evenodd;clip-rule:evenodd;fill:#EEDA12;}
	.st3{fill:#FAFAF5;}
	.st4{fill:#11304C;stroke:#FAFAF5;stroke-width:0.75;stroke-miterlimit:10;}
	.st5{fill:#11304C;stroke:#FAFAF5;stroke-miterlimit:10;}
</style>
<g>
	<path class="st0" d="M142.4,77.4c-3.5-0.3-17.5-0.3-20.1-2.7c-1.9-1.7-4.7-3.2-7.2-3.6c-1-0.1-2-0.3-3-0.4
		c-13.6-1.3-31.6,1.1-42.7-0.1c-1.1-0.1-2.2-0.3-3.2-0.7c-8.1-2.5-10.3-12.4-17.9-22.5c-9.2-12-18.6-18.3-22.2-20.7
		c-7.8-5.2-8.1-3.4-7.7-2.1c0.4,1.1,4.4,6.7,6.7,9.7c-4.1-2.7-8.4-5.3-12.4-7.5c-2.1,3.3-3.7,6.8-5.1,10.5
		c11.6,11.6,18.7,27.6-0.7,34.4c2.2,6.7,5.6,12.9,10,18.3c1.4,1.7,2.4,1.5,2.4,1.5c8-1,16.5-4.4,23.6-6c11.5-2.8,23.3-6.3,35.4-6.1
		c9.4,0.2,19.3,2.1,28.9,2.7c3.2,0.2,6.6,0.3,9.7,0.1c4.7-0.3,22-1.2,26.7-1.5c1.2-0.1,10.2,0.1,9.9-0.3
		C152,77.7,144.9,77.6,142.4,77.4"/>
	<path class="st1" d="M144.6,78.9c-3.5-0.3-17.5-0.3-20.1-2.7c-1.9-1.7-4.7-3.2-7.2-3.6c-1-0.1-2-0.3-3-0.4
		c-13.6-1.3-31.6,1.1-42.7-0.1c-1.1-0.1-2.2-0.3-3.2-0.7c-8.2-2.4-10.4-12.4-18-22.4c-9.1-12-18.5-18.4-22.1-20.8
		c-7.8-5.2-8.1-3.4-7.7-2.1c0.4,1.1,4.4,6.8,6.7,9.8c-4.1-2.7-10.7-6.8-14.8-8.9c-2.1,3.3-3.7,6.8-5.1,10.4
		c11.7,11.6,21.1,29.1,1.8,35.9c2.2,6.7,5.6,12.9,10,18.3c8.8-0.9,18.1-2.7,26-4.7c11.5-2.8,23.3-6.3,35.4-6.1
		c9.4,0.2,19.3,2.1,28.9,2.7c3.3,0.2,6.6,0.3,9.7,0.1c4.7-0.3,22-1.2,26.7-1.5c1.2-0.1,10.2,0.1,9.9-0.3
		C154.3,79.2,147.2,79,144.6,78.9"/>
	<path class="st2" d="M25.1,34.3c-2.3-3-6.4-8.6-6.7-9.7c-0.4-1.3-0.1-3.1,7.7,2.1c3.6,2.4,13.1,8.7,22.1,20.8
		c7.6,10,9.8,19.9,17.9,22.5c1,0.3,2.1,0.5,3.2,0.7c11.2,1.2,29.1-1.2,42.7,0.1c1.5-4.9,2.2-10,2.2-15.3c0-29.9-24.5-54.2-54.8-54.2
		c-19.7,0-36.9,10.2-46.6,25.6C16.8,29,21,31.5,25.1,34.3"/>
	<path class="st2" d="M7.6,37.3C5.5,43,4.5,49.1,4.5,55.5c0,5.6,0.9,11.1,2.5,16.2C26.3,64.9,19.2,48.8,7.6,37.3"/>
	<path class="st3" d="M52.6,44.2C60.9,54.6,63.5,65,72.1,67.5c0.8,0.2,1.5,0.3,2.3,0.5c-6.1-3.6-8.9-12.2-15.8-20.9
		c-9.4-11.9-19-17.9-22.6-20.2c-2.9-1.7-4.7-2.7-5.9-3.1C34.8,26.7,43.8,33.1,52.6,44.2"/>
</g>
<path class="st4" d="M174.4,50.4c0-6.8-5.6-10.7-10.5-13.7c-6.6-4-10-6.4-10-9.9c0-1.2,0.4-5.9,8.5-5.9c6.3,0,9.8,2.2,12.1,3.7
	c0.7,0.4,0.8,0.4,1.3,0.3l2.1-0.7c0.4-0.1,0.5-0.1,0.5-0.6l0.9-5.3c0.1-0.6,0.1-1-0.5-1.2c-1.1-0.4-8.6-2.3-15.7-2.3
	c-12.3,0-21.6,5.3-21.6,14.3c0,5.8,3.8,9,12,14.1c6,3.7,8.4,5.8,8.4,9c0,2.8-2.2,7.2-10.4,7.2c-6.2,0-12-2.9-14-4.5
	c-0.7-0.6-1-0.7-1.6-0.5l-2.5,0.8c-0.5,0.2-0.6,0.2-0.6,0.7l0.1,6c0,0.7,0,1,0.8,1.3c3.5,1.3,12.2,2.3,18.4,2.3
	C171.3,65.5,174.4,54.5,174.4,50.4z"/>
<path class="st4" d="M185.3,64.5l10.2-14h22.1l2.8,14h13.2l-11.3-49h-10.5l-38.2,49H185.3z M213.1,25.9l3.6,18.8h-17L213.1,25.9z"/>
<polygon class="st4" points="245.6,64.5 258.3,64.5 269.2,22.3 290.4,22.3 292.1,15.5 237.3,15.5 235.5,22.3 256.6,22.3 "/>
<polygon class="st4" points="327.1,64.5 328.8,57.9 299.4,57.9 303.5,42.1 327.8,42.1 329.5,35.9 305.1,35.9 308.7,22.1 335.7,22.1 
	337.4,15.5 297.8,15.5 285,64.5 "/>
<polygon class="st4" points="344.7,64.5 353.4,29.2 377.8,64.5 385.2,64.5 399.3,15.5 389.2,15.5 381.3,49.1 358.5,15.5 348.9,15.5 
	334.6,64.5 "/>
<path class="st4" d="M403,64.5l10.2-14h22.1l2.8,14h13.2l-11.3-49h-10.5l-38.2,49H403z M430.8,25.9l3.6,18.8h-17L430.8,25.9z"/>
<polygon class="st5" points="166.1,73.3 166.1,73.4 166.1,73.4 "/>
<path class="st4" d="M176.2,73.3l-6.6,10.2h-5.7l2.2-10.1h-2.5L161,85.1h8.3l0-0.1h1.6l2-3.3h4.4l0.6,3.3h2.6l-2.3-11.7H176.2z
	 M173.6,80.3l2.7-4.5l0.7,4.5H173.6z"/>
<path class="st4" d="M190.6,73.3L183,85h2.3l2-3.3h4.4l0.6,3.3h2.6l-2.3-11.7H190.6z M188.1,80.3l2.7-4.5l0.7,4.5H188.1z"/>
<polygon class="st5" points="205.8,73.3 205.8,73.4 205.8,73.4 "/>
<polygon class="st4" points="203.9,79.7 204.2,78.2 199.3,78.2 200,74.9 205.5,74.9 205.8,73.4 198,73.4 195.4,85.1 203.8,85.1 
	204.1,83.5 198.2,83.5 199,79.7 "/>
<path class="st4" d="M212.1,79.6c1.9-0.4,3.5-1.4,3.5-3.5c0-0.9-0.4-1.6-0.9-2c-0.7-0.6-1.4-0.8-3.4-0.8c-2.4,0-3.3,0.1-4,0.1
	l-2.6,11.7h2.5l1.2-5.1h1.4c1,3.2,1.6,5.3,4.1,5.3c0.4,0,0.7,0,0.9-0.1c0.2-0.1,0.3-0.2,0.4-0.3l0.2-0.7v-0.1
	C213.7,84,213.4,83.4,212.1,79.6z M209.6,78.8c-0.5,0-0.8-0.1-1.1-0.1c0,0,0.9-4,0.9-3.9c2.4-0.1,3.4-0.1,3.4,1.5
	C212.8,78.8,210.3,78.8,209.6,78.8z"/>
<path class="st4" d="M226.4,74.2c-1.1-0.9-2.4-1.1-3.8-1.1c-2.3,0-4.1,0.9-5.3,2.1c-1.6,1.5-2,3.8-2,5.1c0,1.1,0.2,2.9,1.8,4
	c1,0.7,2.3,0.9,3.5,0.9c5,0,7.6-3.8,7.6-7.2C228.2,76.5,227.5,75.1,226.4,74.2z M221,83.8c-2.6,0-3.1-2.1-3.1-3.7
	c0-3,1.9-5.5,4.4-5.5s3.2,1.8,3.2,3.5C225.5,80,224.5,83.8,221,83.8z"/>
<polygon class="st4" points="230.6,83.5 232.8,73.4 230.3,73.4 227.7,85.1 236,85.1 236.4,83.5 "/>
<polygon class="st5" points="232.8,73.3 232.8,73.3 232.8,73.4 232.8,73.4 "/>
<polygon class="st4" points="239,73.3 236.4,85 238.9,85 241.4,73.3 "/>
<polygon class="st5" points="240.8,72.7 244.9,70.2 244.9,69.7 242.6,68.9 239.8,72.5 "/>
<polygon class="st4" points="251.4,73.3 249.8,81.3 245.2,73.3 243.3,73.3 240.4,85 242.4,85 244.1,76.6 249,85 250.6,85 
	253.4,73.3 "/>
<polygon class="st5" points="262.8,73.3 262.8,73.3 262.8,73.4 262.8,73.4 "/>
<path class="st4" d="M268.3,73.3l-7.2,11l0.2-0.8h-5.9l0.8-3.8h4.8l0.3-1.5h-4.9l0.7-3.3h5.4l0.3-1.5h-7.7l-2.5,11.7h8.4l0-0.1h2
	l2-3.3h4.4l0.5,3.3h2.6l-2.3-11.7H268.3z M265.6,80.3l2.7-4.5l0.7,4.5H265.6z"/>
<path class="st4" d="M286.9,74c-1.2-0.8-2.6-0.8-4.2-0.8c-0.9,0-3.2,0.1-3.9,0.1L276.3,85h4.7c1.1,0,1.8-0.1,2.3-0.2
	c3.3-0.6,5.6-3.4,5.6-6.7C288.9,75.9,287.8,74.6,286.9,74z M284,82.9c-0.9,0.5-1.9,0.7-3.3,0.7c-0.5,0-1-0.1-1.6-0.1h0l1.8-8.7
	c2.3,0,3.1,0,3.9,0.4c1.1,0.6,1.4,1.8,1.4,3C286.2,80,285.4,82.1,284,82.9z"/>
<polygon class="st5" points="298.8,73.4 298.8,73.4 298.8,73.3 298.8,73.3 "/>
<polygon class="st4" points="288.4,85.1 296.8,85.1 297.1,83.5 291.2,83.5 292,79.7 297,79.7 297.3,78.2 292.4,78.2 293.1,74.9 
	298.5,74.9 298.8,73.4 290.9,73.4 "/>
<polygon class="st4" points="306.1,73.4 303.5,73.4 301,85.1 309.3,85.1 309.7,83.5 303.9,83.5 "/>
<polygon class="st5" points="306.1,73.3 306.1,73.4 306.1,73.4 "/>
<path class="st4" d="M320.9,74.2L320.9,74.2c-1.1-0.9-2.4-1.1-3.8-1.1c-2.3,0-4.1,0.9-5.3,2.1c-1.6,1.5-2,3.8-2,5.1
	c0,1.1,0.3,2.9,1.8,4c1,0.7,2.3,0.9,3.5,0.9c5.1,0,7.6-3.8,7.6-7.2C322.7,76.5,322,75.1,320.9,74.2z M315.5,83.8
	c-2.6,0-3.1-2.1-3.1-3.7c0-3,1.7-5.5,4.4-5.5c2.5,0,3.2,1.8,3.2,3.5C320,80,319,83.8,315.5,83.8z"/>
<path class="st4" d="M327.8,73.3c-2.4,0-4.3,1.3-4.3,3.4c0,1.4,0.8,2.2,2.4,3.4c1.2,0.8,1.7,1.3,1.7,2.1c0,0.6-0.5,1.7-2.1,1.7
	c-1.3,0-2.4-0.7-2.8-1.1c-0.1-0.1-0.2-0.1-0.3-0.1l-0.5,0.2c-0.1,0.1-0.1,0.1-0.1,0.2v1.4c0,0.1,0,0.2,0.2,0.3
	c0.7,0.4,2.5,0.6,3.7,0.6c3.9,0,4.5-2.6,4.5-3.6c0-1.7-1.1-2.6-2.1-3.3c-1.3-1-2-1.6-2-2.4c0-0.3,0.1-1.4,1.7-1.4
	c1.2,0,1.9,0.6,2.4,0.9c0.1,0.1,0.2,0.1,0.3,0.1l0.4-0.2c0.1-0.1,0.1-0.1,0.1-0.2v-1.1c0-0.1,0-0.2-0.1-0.3
	C330.7,73.7,329.2,73.3,327.8,73.3z"/>
<path class="st4" d="M341.4,74.6c0.6,0,1.7,0,2.8,0.7c0.4,0.3,0.5,0.3,0.6,0.3h0.3c0.1,0,0.2,0,0.2-0.2h0l0.2-1.2
	c0-0.2,0-0.3-0.1-0.3c-0.1-0.2-1.7-0.7-3.5-0.7c-4.4,0-7.7,3-7.7,6.9c0,2.5,1.4,5.2,5.7,5.2c1.3,0,2.5-0.2,3.3-0.4
	c0.4-0.1,0.4-0.2,0.5-0.3l0.4-1.3c0-0.2-0.4-0.4-0.4-0.4c-0.1,0-0.5,0.2-0.6,0.3c-1.1,0.5-2.2,0.6-2.7,0.6c-1,0-1.8-0.3-2.4-0.8
	c-0.7-0.6-1.2-1.5-1.2-3.1C336.8,77.9,337.7,74.6,341.4,74.6z"/>
<path class="st4" d="M355.8,74.2c-1.1-0.9-2.3-1.1-3.8-1.1c-2.3,0-4.1,0.9-5.3,2.1c-1.6,1.5-2,3.8-2,5.1c0,1.1,0.3,2.9,1.8,4
	c1,0.7,2.3,0.9,3.5,0.9c5.1,0,7.6-3.8,7.6-7.2C357.6,76.5,356.9,75.1,355.8,74.2z M350.4,83.8c-2.6,0-3.1-2.1-3.1-3.7
	c0-3,1.9-5.5,4.4-5.5s3.2,1.8,3.2,3.5C354.9,80,353.9,83.8,350.4,83.8z"/>
<polygon class="st4" points="362.2,73.4 359.6,73.4 357.1,85.1 365.4,85.1 365.8,83.5 360,83.5 "/>
<polygon class="st5" points="362.2,73.3 362.2,73.4 362.2,73.4 "/>
<path class="st4" d="M376.9,74.2L376.9,74.2c-1.1-0.9-2.3-1.1-3.8-1.1c-2.3,0-4.1,0.9-5.3,2.1c-1.6,1.5-2,3.8-2,5.1
	c0,1.1,0.3,2.9,1.8,4c1,0.7,2.3,0.9,3.5,0.9c5.1,0,7.6-3.8,7.6-7.2C378.7,76.5,378,75.1,376.9,74.2z M371.5,83.8
	c-2.6,0-3.1-2.1-3.1-3.7c0-3,1.7-5.5,4.4-5.5c2.5,0,3.2,1.8,3.2,3.5C376,80,375,83.8,371.5,83.8z"/>
<polygon class="st4" points="391.1,73.3 385.5,81.7 383.3,73.3 381.2,73.3 377.8,85 379.8,85 381.8,76.4 383.8,85 385.1,84.8 
	390.5,76.7 389.2,85 391.7,85 393.4,73.3 "/>
<path class="st4" d="M403,75.5c0-2.3-2.5-2.3-3.7-2.3c-0.7,0-3.1,0.1-3.7,0.1h0L393,84.9h4c0.9,0,2.5,0,3.8-0.7s2-2,2-3.3
	c0-1.4-0.8-2.3-2.2-2.6C401.9,77.9,403,76.9,403,75.5z M398.2,83.5c-0.4,0.1-0.8,0.1-2.4,0.1l0.9-4.1h0.4c1.3,0,1.9,0,2.4,0.3
	c0.6,0.4,0.7,1.1,0.7,1.4C400.2,81.4,400.2,83.1,398.2,83.5z M399.4,77.7c-0.6,0.4-1.6,0.4-2.1,0.4H397l0.7-3.4h1.3
	c1,0,1.4,0.5,1.4,1.2C400.4,76.5,400.1,77.3,399.4,77.7z"/>
<polygon class="st4" points="405.6,73.3 403.1,85 405.6,85 408.1,73.3 "/>
<path class="st4" d="M413.8,73.3L406.2,85h2.3l2-3.3h4.4l0.5,3.3h2.6l-2.3-11.7H413.8z M414.6,80.3h-3.4l2.7-4.5L414.6,80.3
	L414.6,80.3z"/>
<polygon class="st4" points="429.1,73.3 427.5,81.3 423,73.3 421.1,73.3 418.2,85 420.2,85 421.9,76.6 426.8,85 428.3,85 
	431.1,73.3 "/>
<path class="st4" d="M441.7,74.2c-1.1-0.9-2.4-1.1-3.8-1.1c-2.3,0-4.1,0.9-5.3,2.1c-1.6,1.5-2,3.8-2,5.1c0,1.1,0.3,2.9,1.8,4
	c1,0.7,2.3,0.9,3.5,0.9c5.1,0,7.6-3.8,7.6-7.2C443.5,76.5,442.8,75.1,441.7,74.2z M436.3,83.8c-2.6,0-3.1-2.1-3.1-3.7
	c0-3,1.7-5.5,4.4-5.5c2.5,0,3.2,1.8,3.2,3.5C440.8,80,439.8,83.8,436.3,83.8z"/>
<path class="st4" d="M451.7,73.9c-0.2-0.2-1.7-0.6-3.1-0.6c-2.4,0-4.3,1.3-4.3,3.4c0,1.4,0.8,2.2,2.4,3.4c1.2,0.8,1.7,1.3,1.7,2.1
	c0,0.6-0.5,1.7-2.1,1.7c-1.3,0-2.4-0.7-2.8-1.1c-0.1-0.1-0.2-0.1-0.3-0.1l-0.5,0.2c-0.1,0.1-0.1,0.1-0.1,0.2v1.4
	c0,0.1,0,0.2,0.2,0.3c0.7,0.4,2.5,0.6,3.7,0.6c3.9,0,4.5-2.6,4.5-3.6c0-1.7-1.1-2.6-2.1-3.3c-1.3-1-2-1.6-2-2.4
	c0-0.3,0.1-1.4,1.7-1.4c1.2,0,1.9,0.6,2.4,0.9c0.1,0.1,0.2,0.1,0.3,0.1l0.4-0.2c0.1-0.1,0.1-0.1,0.1-0.2v-1.1
	C451.8,74.1,451.8,74,451.7,73.9z"/>
</svg>
