<?xml version="1.0" encoding="utf-8"?>
<!-- Generator: Adobe Illustrator 27.2.0, SVG Export Plug-In . SVG Version: 6.00 Build 0)  -->
<svg version="1.1" id="Capa_2_00000183930077274868011940000015206775153125059507_"
	 xmlns="http://www.w3.org/2000/svg" xmlns:xlink="http://www.w3.org/1999/xlink" x="0px" y="0px" viewBox="0 0 456 92.7"
	 style="enable-background:new 0 0 456 92.7;" xml:space="preserve">
<style type="text/css">
	.st0{fill-rule:evenodd;clip-rule:evenodd;fill:none;stroke:#FAFAF5;stroke-miterlimit:10;}
	.st1{fill-rule:evenodd;clip-rule:evenodd;fill:none;stroke:#FAFAF5;stroke-width:0.75;stroke-miterlimit:10;}
	.st2{fill:#FAFAF5;}
	.st3{fill:#FFFFFF;}
	.st4{fill:none;stroke:#FAFAF5;stroke-miterlimit:10;}
</style>
<g>
	<path class="st0" d="M21.5,34.1c-2.3-3-6.5-8.6-6.8-9.8c-0.4-1.3-0.1-3.1,7.7,2.2c3.7,2.4,13.2,8.8,22.4,20.9
		c7.7,10.1,9.9,20.1,18.1,22.7c1,0.3,2.1,0.5,3.2,0.7c11.3,1.2,29.4-1.2,43.1,0.1c1.5-4.9,2.2-10.1,2.2-15.4
		c0-30.1-24.7-54.6-55.3-54.6c-19.9,0-37.3,10.3-47,25.7C13.1,28.8,17.4,31.4,21.5,34.1"/>
	<path class="st1" d="M3.9,37c-2.1,5.8-3.2,11.9-3.2,18.4c0,5.7,0.9,11.2,2.5,16.3C22.8,64.8,15.6,48.6,3.9,37"/>
	<path class="st2" d="M50.4,44.9c8.3,10.5,11,20.9,19.7,23.5c0.8,0.2,1.5,0.3,2.3,0.5c-6.2-3.6-8.9-12.3-15.9-21
		c-9.4-11.9-19.2-18-22.9-20.4c-2.9-1.8-4.8-2.7-6-3.1C32.4,27.3,41.5,33.8,50.4,44.9"/>
	<path class="st3" d="M183,26.8c0,0.5-0.1,0.5-0.5,0.6l-2.1,0.7c-0.5,0.1-0.6,0.1-1.3-0.3c-2.3-1.5-5.8-3.6-12-3.6
		c-8,0-8.4,4.6-8.4,5.8c0,3.4,3.4,5.8,9.9,9.7c4.9,2.9,10.4,6.8,10.4,13.4c0,4-3.1,14.8-22.2,14.8c-6.2,0-14.8-1-18.3-2.3
		c-0.8-0.3-0.8-0.6-0.8-1.3l-0.1-5.9c0-0.5,0.1-0.5,0.6-0.7l2.5-0.8c0.6-0.2,0.9-0.1,1.6,0.5c2,1.6,7.7,4.4,13.9,4.4
		c8.1,0,10.3-4.3,10.3-7c0-3.1-2.4-5.2-8.3-8.8c-8.1-5-11.9-8.1-11.9-13.8c0-8.8,9.2-14,21.5-14c7.1,0,14.5,1.9,15.6,2.3
		c0.6,0.2,0.6,0.6,0.5,1.2L183,26.8L183,26.8L183,26.8z"/>
	<path class="st3" d="M226.6,18.9l11.2,47.9h-13.1l-2.8-13.7h-22l-10.1,13.7h-11.6l38-47.9H226.6L226.6,18.9z M221,47.5l-3.6-18.4
		l-13.3,18.4H221z"/>
	<polygon class="st3" points="296,18.9 294.3,25.5 273.2,25.5 262.4,66.8 249.8,66.8 260.7,25.5 239.7,25.5 241.5,18.9 	"/>
	<polygon class="st3" points="341,18.9 339.3,25.4 312.5,25.4 308.9,38.9 333.1,38.9 331.4,44.9 307.3,44.9 303.2,60.4 332.4,60.4 
		330.7,66.8 288.9,66.8 301.6,18.9 	"/>
	<polygon class="st3" points="361.9,18.9 384.6,51.8 392.4,18.9 402.5,18.9 388.5,66.8 381.1,66.8 356.9,32.3 348.2,66.8 
		338.2,66.8 352.4,18.9 	"/>
	<path class="st3" d="M442.9,18.9l11.2,47.9H441l-2.8-13.7h-22l-10.1,13.7h-11.6l38-47.9H442.9z M437.4,47.5l-3.6-18.4l-13.3,18.4
		H437.4z"/>
	<path class="st3" d="M170.8,75.5l-2.2,10h5.8L174,87h-8.2l2.6-11.4L170.8,75.5L170.8,75.5z"/>
	<path class="st3" d="M182.8,75.5l2.3,11.4h-2.6l-0.6-3.2h-4.4l-2,3.2h-2.3l7.6-11.4H182.8L182.8,75.5z M181.6,82.3l-0.7-4.4
		l-2.7,4.4H181.6z"/>
	<path class="st3" d="M197.1,75.5l2.3,11.4h-2.6l-0.6-3.2h-4.4l-2,3.2h-2.3l7.6-11.4H197.1L197.1,75.5z M196,82.3l-0.7-4.4l-2.7,4.4
		H196z"/>
	<path class="st3" d="M210.2,75.5l-0.3,1.6h-5.5l-0.7,3.2h4.9l-0.3,1.5h-4.9l-0.8,3.7h5.9l-0.3,1.6h-8.3l2.6-11.4L210.2,75.5
		L210.2,75.5L210.2,75.5z"/>
	<path class="st3" d="M211.6,87h-2.5l2.6-11.4c0.7,0,1.6-0.1,4-0.1c2,0,2.7,0.2,3.4,0.8c0.5,0.4,0.9,1.1,0.9,2c0,2.1-1.6,3-3.5,3.4
		c1.3,3.7,1.6,4.3,3.3,4.4v0.1l-0.2,0.7c-0.1,0.2-0.1,0.2-0.4,0.3c-0.2,0.1-0.5,0.1-0.9,0.1c-2.5,0-3.1-2.1-4.1-5.2
		c-0.4,0-0.8,0-1.4,0L211.6,87L211.6,87L211.6,87z M212.9,80.7c0.3,0,0.6,0.1,1.1,0.1c0.7,0,3.2,0,3.2-2.4c0-1.6-1-1.6-3.4-1.5
		C213.8,76.8,212.9,80.7,212.9,80.7z"/>
	<path class="st3" d="M230.7,76.3c1.1,0.9,1.8,2.3,1.8,3.7c0,3.3-2.6,7-7.6,7c-1.2,0-2.5-0.2-3.5-0.9c-1.6-1.1-1.8-2.8-1.8-3.9
		c0-1.3,0.4-3.5,2-5c1.2-1.2,3-2.1,5.3-2.1C228.3,75.3,229.6,75.5,230.7,76.3L230.7,76.3L230.7,76.3z M222.2,82.1
		c0,1.6,0.5,3.6,3.1,3.6c3.5,0,4.5-3.7,4.5-5.6c0-1.7-0.7-3.4-3.2-3.4C224,76.7,222.2,79.2,222.2,82.1z"/>
	<path class="st3" d="M237,75.5l-2.2,10h5.8l-0.4,1.6H232l2.6-11.4L237,75.5L237,75.5L237,75.5z"/>
	<path class="st3" d="M245.6,75.5l-2.5,11.4h-2.5l2.6-11.4H245.6z M249.1,71.9v0.5l-4.1,2.4l-1-0.2l2.8-3.5L249.1,71.9L249.1,71.9
		L249.1,71.9z"/>
	<path class="st3" d="M249.4,75.5l4.6,7.8l1.6-7.8h2l-2.8,11.4h-1.6l-4.9-8.2l-1.7,8.2h-2l2.9-11.4H249.4L249.4,75.5z"/>
	<path class="st3" d="M266.9,75.5l-0.3,1.6h-5.4l-0.7,3.2h4.9l-0.3,1.5h-4.8l-0.8,3.7h5.9l-0.3,1.6h-8.3l2.5-11.4L266.9,75.5
		L266.9,75.5L266.9,75.5z"/>
	<path class="st3" d="M274.2,75.5l2.3,11.4h-2.6l-0.5-3.2H269l-2,3.2h-2.3l7.6-11.4H274.2L274.2,75.5L274.2,75.5z M273,82.3
		l-0.7-4.4l-2.7,4.4H273z"/>
	<path class="st3" d="M282.7,75.5c0.7,0,3-0.1,3.9-0.1c1.6,0,3,0,4.2,0.8c0.9,0.6,2,1.9,2,4c0,3.2-2.3,6-5.6,6.6
		c-0.5,0.1-1.2,0.2-2.3,0.2c-0.9,0-4.3,0-4.7,0L282.7,75.5C282.7,75.6,282.7,75.6,282.7,75.5z M283,85.4c0.6,0,1.1,0.1,1.6,0.1
		c1.4,0,2.4-0.2,3.3-0.7c1.4-0.8,2.2-2.8,2.2-4.6c0-1.2-0.3-2.3-1.4-2.9c-0.8-0.4-1.6-0.4-3.9-0.4L283,85.4L283,85.4L283,85.4z"/>
	<path class="st3" d="M302.6,75.5l-0.3,1.6H297l-0.7,3.2h4.9l-0.3,1.5h-5l-0.8,3.7h5.9l-0.3,1.6h-8.3l2.5-11.4L302.6,75.5
		L302.6,75.5L302.6,75.5z"/>
	<path class="st3" d="M309.9,75.5l-2.2,10h5.8l-0.4,1.6h-8.2l2.5-11.4L309.9,75.5L309.9,75.5z"/>
	<path class="st3" d="M324.6,76.3c1.1,0.9,1.8,2.3,1.8,3.7c0,3.3-2.5,7-7.6,7c-1.2,0-2.5-0.2-3.5-0.9c-1.5-1.1-1.8-2.8-1.8-3.9
		c0-1.3,0.4-3.5,2-5c1.2-1.2,3-2.1,5.3-2.1C322.2,75.3,323.5,75.5,324.6,76.3L324.6,76.3L324.6,76.3z M316.1,82.1
		c0,1.6,0.5,3.6,3.1,3.6c3.5,0,4.5-3.7,4.5-5.6c0-1.7-0.7-3.4-3.2-3.4C317.8,76.7,316.1,79.2,316.1,82.1z"/>
	<path class="st3" d="M334.6,77.4c0,0.1,0,0.1-0.1,0.2l-0.4,0.2c-0.1,0-0.1,0-0.3-0.1c-0.5-0.3-1.2-0.9-2.4-0.9
		c-1.6,0-1.7,1.1-1.7,1.4c0,0.8,0.7,1.4,2,2.3c1,0.7,2.1,1.6,2.1,3.2c0,1-0.6,3.5-4.5,3.5c-1.2,0-3-0.2-3.7-0.6
		c-0.2-0.1-0.2-0.2-0.2-0.3V85c0-0.1,0-0.1,0.1-0.2l0.5-0.2c0.1,0,0.2,0,0.3,0.1c0.4,0.4,1.5,1.1,2.8,1.1c1.6,0,2.1-1.1,2.1-1.7
		c0-0.8-0.5-1.3-1.7-2.1c-1.6-1.2-2.4-2-2.4-3.3c0-2.1,1.9-3.3,4.3-3.3c1.4,0,2.9,0.4,3.1,0.6c0.1,0.1,0.1,0.2,0.1,0.3L334.6,77.4
		L334.6,77.4L334.6,77.4z"/>
	<path class="st3" d="M348.8,77.5c0,0.2-0.1,0.2-0.2,0.2h-0.3c-0.1,0-0.2,0-0.6-0.3c-1.1-0.7-2.2-0.7-2.8-0.7
		c-3.7,0-4.6,3.2-4.6,5.2c0,1.6,0.5,2.4,1.2,3c0.6,0.5,1.4,0.8,2.4,0.8c0.5,0,1.6-0.1,2.7-0.6c0.1-0.1,0.5-0.3,0.6-0.3
		c0,0,0.4,0.2,0.4,0.4l-0.4,1.3c-0.1,0.1-0.1,0.2-0.5,0.3c-0.8,0.2-2,0.4-3.3,0.4c-4.3,0-5.7-2.6-5.7-5.1c0-3.8,3.3-6.8,7.7-6.8
		c1.8,0,3.4,0.5,3.5,0.7c0.1,0,0.1,0.1,0.1,0.3L348.8,77.5L348.8,77.5L348.8,77.5z"/>
	<path class="st3" d="M359.3,76.3c1.1,0.9,1.8,2.3,1.8,3.7c0,3.3-2.5,7-7.6,7c-1.2,0-2.5-0.2-3.5-0.9c-1.5-1.1-1.8-2.8-1.8-3.9
		c0-1.3,0.4-3.5,2-5c1.2-1.2,3-2.1,5.3-2.1C357,75.3,358.2,75.5,359.3,76.3L359.3,76.3L359.3,76.3z M350.8,82.1
		c0,1.6,0.5,3.6,3.1,3.6c3.5,0,4.5-3.7,4.5-5.6c0-1.7-0.7-3.4-3.2-3.4C352.6,76.7,350.8,79.2,350.8,82.1z"/>
	<path class="st3" d="M365.6,75.5l-2.2,10h5.8l-0.4,1.6h-8.2l2.5-11.4L365.6,75.5L365.6,75.5z"/>
	<path class="st3" d="M380.2,76.3c1.1,0.9,1.8,2.3,1.8,3.7c0,3.3-2.5,7-7.6,7c-1.2,0-2.5-0.2-3.5-0.9c-1.5-1.1-1.8-2.8-1.8-3.9
		c0-1.3,0.4-3.5,2-5c1.2-1.2,3-2.1,5.3-2.1C377.9,75.3,379.1,75.5,380.2,76.3L380.2,76.3L380.2,76.3z M371.8,82.1
		c0,1.6,0.5,3.6,3.1,3.6c3.5,0,4.5-3.7,4.5-5.6c0-1.7-0.7-3.4-3.2-3.4C373.5,76.7,371.8,79.2,371.8,82.1z"/>
	<path class="st3" d="M386.6,75.5l2.2,8.2l5.6-8.2h2.3l-1.7,11.4h-2.5l1.3-8.1l-5.4,7.9l-1.3,0.2l-2-8.4l-2,8.4h-2l3.4-11.4H386.6
		L386.6,75.5z"/>
	<path class="st3" d="M398.8,75.5c0.6,0,3-0.1,3.7-0.1c1.2,0,3.7,0,3.7,2.3c0,1.4-1.1,2.3-2.4,2.7c1.4,0.3,2.2,1.2,2.2,2.5
		c0,1.3-0.7,2.5-2,3.2c-1.3,0.7-2.9,0.7-3.8,0.7c-0.2,0-1,0-1.9,0c-0.9,0-1.8,0-2.1,0L398.8,75.5C398.8,75.6,398.8,75.6,398.8,75.5z
		 M399,85.5c1.6,0,2,0,2.4-0.1c2-0.4,2-2.1,2-2.3c0-0.3-0.1-1-0.7-1.4c-0.5-0.3-1.1-0.3-2.4-0.3h-0.4L399,85.5L399,85.5L399,85.5z
		 M400.2,80.1h0.3c0.5,0,1.5,0,2.1-0.4c0.7-0.4,1-1.2,1-1.8c0-0.7-0.4-1.2-1.4-1.2h-1.3L400.2,80.1L400.2,80.1z"/>
	<path class="st3" d="M411.2,75.5l-2.5,11.4h-2.5l2.5-11.4H411.2z"/>
	<path class="st3" d="M418.8,75.5l2.3,11.4h-2.6l-0.5-3.2h-4.4l-2,3.2h-2.3l7.6-11.4H418.8L418.8,75.5L418.8,75.5z M417.7,82.3
		l-0.7-4.4l-2.7,4.4H417.7z"/>
	<path class="st3" d="M426,75.5l4.5,7.8l1.6-7.8h2l-2.8,11.4h-1.5l-4.9-8.2l-1.7,8.2h-2l2.9-11.4H426z"/>
	<path class="st3" d="M444.6,76.3c1.1,0.9,1.8,2.3,1.8,3.7c0,3.3-2.5,7-7.6,7c-1.2,0-2.5-0.2-3.5-0.9c-1.5-1.1-1.8-2.8-1.8-3.9
		c0-1.3,0.4-3.5,2-5c1.2-1.2,3-2.1,5.3-2.1C442.2,75.3,443.5,75.5,444.6,76.3L444.6,76.3L444.6,76.3z M436.2,82.1
		c0,1.6,0.5,3.6,3.1,3.6c3.5,0,4.5-3.7,4.5-5.6c0-1.7-0.7-3.4-3.2-3.4C437.8,76.7,436.2,79.2,436.2,82.1z"/>
	<path class="st3" d="M454.6,77.4c0,0.1,0,0.1-0.1,0.2l-0.4,0.2c-0.1,0-0.1,0-0.3-0.1c-0.5-0.3-1.2-0.9-2.4-0.9
		c-1.6,0-1.7,1.1-1.7,1.4c0,0.8,0.7,1.4,2,2.3c1,0.7,2.1,1.6,2.1,3.2c0,1-0.6,3.5-4.5,3.5c-1.2,0-3-0.2-3.7-0.6
		c-0.2-0.1-0.2-0.2-0.2-0.3V85c0-0.1,0-0.1,0.1-0.2l0.5-0.2c0.1,0,0.2,0,0.3,0.1c0.4,0.4,1.5,1.1,2.8,1.1c1.6,0,2.1-1.1,2.1-1.7
		c0-0.8-0.5-1.3-1.7-2.1c-1.6-1.2-2.4-2-2.4-3.3c0-2.1,1.9-3.3,4.3-3.3c1.4,0,2.9,0.4,3.1,0.6c0.1,0.1,0.1,0.2,0.1,0.3L454.6,77.4
		L454.6,77.4L454.6,77.4z"/>
	<path class="st4" d="M139.9,77.7c-3.6-0.3-17.7-0.3-20.3-2.7c-1.9-1.8-4.8-3.2-7.3-3.6c-1-0.1-2-0.3-3-0.4
		c-13.7-1.3-31.9,1.1-43.1-0.1c-1.1-0.1-2.2-0.3-3.2-0.7C55,67.6,52.7,57.6,45.1,47.5c-9.2-12-18.8-18.4-22.5-20.8
		c-7.8-5.3-8.1-3.4-7.7-2.2c0.4,1.1,4.5,6.8,6.8,9.8c-4.2-2.7-8.4-5.4-12.5-7.5C7,30.1,5.3,33.6,3.9,37.3
		c11.7,11.6,18.9,27.8-0.7,34.6c2.2,6.8,5.7,13,10.1,18.4c1.4,1.7,2.4,1.5,2.4,1.5c8-1,16.7-4.4,23.8-6.1
		c11.6-2.8,23.5-6.4,35.8-6.2c9.4,0.2,19.5,2.2,29.2,2.7c3.3,0.2,6.7,0.3,9.8,0.1c4.8-0.3,22.2-1.2,26.9-1.5
		c1.2-0.1,10.3,0.1,10-0.3C149.7,78,142.5,77.9,139.9,77.7"/>
</g>
</svg>
