<?xml version="1.0" encoding="utf-8"?>
<!-- Generator: Adobe Illustrator 27.2.0, SVG Export Plug-In . SVG Version: 6.00 Build 0)  -->
<svg version="1.1" id="Capa_2_00000105386517851164554040000014381327739870804662_"
	 xmlns="http://www.w3.org/2000/svg" xmlns:xlink="http://www.w3.org/1999/xlink" x="0px" y="0px" viewBox="0 0 455.8 92.7"
	 style="enable-background:new 0 0 455.8 92.7;" xml:space="preserve">
<style type="text/css">
	.st0{fill:#800023;}
	.st1{fill:#AF001F;}
	.st2{fill-rule:evenodd;clip-rule:evenodd;fill:#EEDA12;}
	.st3{fill:#FAFAF5;}
	.st4{fill:#FFFFFF;}
</style>
<g id="Capa_2-2">
	<g>
		<path class="st0" d="M140.1,78.3c-3.6-0.3-17.8-0.3-20.4-2.8c-1.9-1.8-4.8-3.3-7.3-3.7c-1-0.1-2-0.3-3-0.4
			c-13.8-1.3-32.1,1.1-43.4-0.1c-1.1-0.1-2.2-0.3-3.2-0.7C54.6,68,52.3,57.8,44.6,47.4C35.3,35.1,25.7,28.6,22,26.1
			c-7.9-5.4-8.2-3.5-7.8-2.2c0.4,1.1,4.5,6.9,6.8,10c-4.2-2.8-8.5-5.5-12.6-7.7c-2.1,3.4-3.8,7-5.2,10.8c11.8,11.9,19,28.4-0.7,35.4
			c2.2,6.9,5.7,13.3,10.2,18.8c1.4,1.7,2.4,1.5,2.4,1.5c8.1-1,16.8-4.5,24-6.2c11.7-2.9,23.7-6.5,36-6.3c9.5,0.2,19.6,2.2,29.4,2.8
			c3.3,0.2,6.7,0.3,9.9,0.1c4.8-0.3,22.3-1.2,27.1-1.5c1.2-0.1,10.4,0.1,10.1-0.3C149.9,78.6,142.7,78.5,140.1,78.3"/>
		<path class="st1" d="M142.4,79.8c-3.6-0.3-17.8-0.3-20.4-2.8c-1.9-1.8-4.8-3.3-7.3-3.7c-1-0.1-2-0.3-3-0.4
			c-13.8-1.3-32.1,1.1-43.4-0.1c-1.1-0.1-2.2-0.3-3.2-0.7C56.8,69.6,54.5,59.3,46.8,49C37.6,36.6,28,30.1,24.3,27.6
			c-7.9-5.4-8.2-3.5-7.8-2.2c0.4,1.1,4.5,7,6.8,10.1c-4.2-2.8-10.9-7-15-9.2c-2.1,3.4-3.8,7-5.2,10.7C15,48.9,24.5,66.9,4.9,73.9
			c2.2,6.9,5.7,13.3,10.2,18.8c8.9-0.9,18.4-2.8,26.4-4.8c11.7-2.9,23.7-6.5,36-6.3c9.5,0.2,19.6,2.2,29.4,2.8
			c3.4,0.2,6.7,0.3,9.9,0.1c4.8-0.3,22.3-1.2,27.1-1.5c1.2-0.1,10.4,0.1,10.1-0.3C152.2,80.2,145,80,142.4,79.8"/>
		<path class="st2" d="M21,33.9c-2.3-3.1-6.5-8.8-6.8-10c-0.4-1.3-0.1-3.2,7.8,2.2c3.7,2.5,13.3,9,22.5,21.4
			c7.7,10.3,10,20.5,18.2,23.2c1,0.3,2.1,0.5,3.2,0.7c11.4,1.2,29.6-1.2,43.4,0.1c1.5-5,2.2-10.3,2.2-15.7C111.5,25,86.6,0,55.8,0
			c-20,0-37.5,10.5-47.3,26.3C12.5,28.5,16.8,31.1,21,33.9"/>
		<path class="st2" d="M3.2,37C1.1,42.9,0,49.2,0,55.8c0,5.8,0.9,11.4,2.5,16.7C22.2,65.4,15,48.9,3.2,37"/>
		<path class="st3" d="M48.9,44.1c8.4,10.7,11.1,21.4,19.8,24c0.8,0.2,1.5,0.3,2.3,0.5c-6.2-3.7-9-12.6-16-21.5
			c-9.5-12.2-19.3-18.4-23-20.8c-2.9-1.8-4.8-2.8-6-3.2C30.8,26.1,40,32.7,48.9,44.1"/>
		<path class="st4" d="M182.4,25.6c0,0.5-0.1,0.5-0.5,0.6l-2.1,0.7c-0.5,0.1-0.6,0.1-1.3-0.3c-2.3-1.5-5.8-3.7-12.1-3.7
			c-8.1,0-8.5,4.7-8.5,5.9c0,3.5,3.4,5.9,10,9.9c4.9,3,10.5,6.9,10.5,13.7c0,4.1-3.1,15.1-22.3,15.1c-6.2,0-14.9-1-18.4-2.3
			c-0.8-0.3-0.8-0.6-0.8-1.3l-0.1-6c0-0.5,0.1-0.5,0.6-0.7l2.5-0.8c0.6-0.2,0.9-0.1,1.6,0.5c2,1.6,7.8,4.5,14,4.5
			c8.2,0,10.4-4.4,10.4-7.2c0-3.2-2.4-5.3-8.4-9c-8.2-5.1-12-8.3-12-14.1c0-9,9.3-14.3,21.6-14.3c7.1,0,14.6,1.9,15.7,2.3
			c0.6,0.2,0.6,0.6,0.5,1.2L182.4,25.6C182.4,25.6,182.4,25.6,182.4,25.6z"/>
		<path class="st4" d="M226.3,17.5l11.3,49h-13.2l-2.8-14h-22.1l-10.2,14h-11.7l38.2-49H226.3z M220.7,46.7l-3.6-18.8l-13.4,18.8
			H220.7z"/>
		<polygon class="st4" points="296.1,17.5 294.4,24.3 273.2,24.3 262.3,66.5 249.6,66.5 260.6,24.3 239.5,24.3 241.3,17.5 		"/>
		<polygon class="st4" points="341.4,17.5 339.7,24.1 312.7,24.1 309.1,37.9 333.5,37.9 331.8,44.1 307.5,44.1 303.4,59.9 
			332.8,59.9 331.1,66.5 289,66.5 301.8,17.5 		"/>
		<polygon class="st4" points="362.5,17.5 385.3,51.1 393.2,17.5 403.3,17.5 389.2,66.5 381.8,66.5 357.4,31.2 348.7,66.5 
			338.6,66.5 352.9,17.5 		"/>
		<path class="st4" d="M444,17.5l11.3,49h-13.2l-2.8-14h-22.1l-10.2,14h-11.7l38.2-49H444L444,17.5z M438.4,46.7l-3.6-18.8
			l-13.4,18.8H438.4z"/>
		<path class="st4" d="M170.1,75.3l-2.2,10.2h5.8l-0.4,1.6H165l2.6-11.7L170.1,75.3L170.1,75.3L170.1,75.3z"/>
		<path class="st4" d="M182.2,75.3l2.3,11.7h-2.6l-0.6-3.3h-4.4l-2,3.3h-2.3l7.6-11.7H182.2z M181,82.3l-0.7-4.5l-2.7,4.5H181z"/>
		<path class="st4" d="M196.6,75.3l2.3,11.7h-2.6l-0.6-3.3h-4.4l-2,3.3H187l7.6-11.7H196.6z M195.5,82.3l-0.7-4.5l-2.7,4.5H195.5z"
			/>
		<path class="st4" d="M209.8,75.3l-0.3,1.6H204l-0.7,3.3h4.9l-0.3,1.5H203l-0.8,3.8h5.9l-0.3,1.6h-8.4l2.6-11.7h7.8V75.3
			C209.8,75.3,209.8,75.3,209.8,75.3z"/>
		<path class="st4" d="M211.2,87.1h-2.5l2.6-11.7c0.7,0,1.6-0.1,4-0.1c2,0,2.7,0.2,3.4,0.8c0.5,0.4,0.9,1.1,0.9,2
			c0,2.1-1.6,3.1-3.5,3.5c1.3,3.8,1.6,4.4,3.3,4.5v0.1l-0.2,0.7c-0.1,0.1-0.2,0.2-0.4,0.3c-0.2,0.1-0.5,0.1-0.9,0.1
			c-2.5,0-3.1-2.1-4.1-5.3h-1.4L211.2,87.1L211.2,87.1L211.2,87.1z M212.5,80.7c0.3,0,0.6,0.1,1.1,0.1c0.7,0,3.2,0,3.2-2.5
			c0-1.6-1-1.6-3.4-1.5C213.4,76.7,212.5,80.7,212.5,80.7L212.5,80.7z"/>
		<path class="st4" d="M230.4,76.2c1.1,0.9,1.8,2.3,1.8,3.8c0,3.4-2.6,7.2-7.6,7.2c-1.2,0-2.5-0.2-3.5-0.9c-1.6-1.1-1.8-2.9-1.8-4
			c0-1.3,0.4-3.6,2-5.1c1.2-1.2,3-2.1,5.3-2.1C228,75.1,229.3,75.3,230.4,76.2L230.4,76.2z M221.9,82.1c0,1.6,0.5,3.7,3.1,3.7
			c3.5,0,4.5-3.8,4.5-5.7c0-1.7-0.7-3.5-3.2-3.5S221.9,79.1,221.9,82.1L221.9,82.1z"/>
		<path class="st4" d="M236.8,75.3l-2.2,10.2h5.8l-0.4,1.6h-8.3l2.6-11.7L236.8,75.3L236.8,75.3L236.8,75.3L236.8,75.3z"/>
		<path class="st4" d="M245.4,75.3L242.9,87h-2.5l2.6-11.7H245.4z M248.9,71.7v0.5l-4.1,2.5l-1-0.2l2.8-3.6L248.9,71.7
			C248.9,71.7,248.9,71.7,248.9,71.7z"/>
		<path class="st4" d="M249.2,75.3l4.6,8l1.6-8h2L254.6,87H253l-4.9-8.4l-1.7,8.4h-2l2.9-11.7H249.2L249.2,75.3z"/>
		<path class="st4" d="M266.8,75.3l-0.3,1.6h-5.4l-0.7,3.3h4.9l-0.3,1.5h-4.8l-0.8,3.8h5.9l-0.3,1.6h-8.4l2.5-11.7h7.7L266.8,75.3
			L266.8,75.3L266.8,75.3z"/>
		<path class="st4" d="M274.2,75.3l2.3,11.7h-2.6l-0.5-3.3H269l-2,3.3h-2.3l7.6-11.7H274.2z M273,82.3l-0.7-4.5l-2.7,4.5H273
			L273,82.3z"/>
		<path class="st4" d="M282.8,75.3c0.7,0,3-0.1,3.9-0.1c1.6,0,3,0,4.2,0.8c0.9,0.6,2,1.9,2,4.1c0,3.3-2.3,6.1-5.6,6.7
			c-0.5,0.1-1.2,0.2-2.3,0.2h-4.7L282.8,75.3C282.8,75.4,282.8,75.4,282.8,75.3z M283.1,85.5c0.6,0,1.1,0.1,1.6,0.1
			c1.4,0,2.4-0.2,3.3-0.7c1.4-0.8,2.2-2.9,2.2-4.7c0-1.2-0.3-2.4-1.4-3c-0.8-0.4-1.6-0.4-3.9-0.4L283.1,85.5L283.1,85.5L283.1,85.5z
			"/>
		<path class="st4" d="M302.8,75.3l-0.3,1.6h-5.4l-0.7,3.3h4.9l-0.3,1.5h-5l-0.8,3.8h5.9l-0.3,1.6h-8.4l2.5-11.7h7.9L302.8,75.3
			L302.8,75.3L302.8,75.3z"/>
		<path class="st4" d="M310.1,75.3l-2.2,10.2h5.8l-0.4,1.6H305l2.5-11.7L310.1,75.3L310.1,75.3z"/>
		<path class="st4" d="M324.9,76.2c1.1,0.9,1.8,2.3,1.8,3.8c0,3.4-2.5,7.2-7.6,7.2c-1.2,0-2.5-0.2-3.5-0.9c-1.5-1.1-1.8-2.9-1.8-4
			c0-1.3,0.4-3.6,2-5.1c1.2-1.2,3-2.1,5.3-2.1C322.5,75.1,323.8,75.3,324.9,76.2L324.9,76.2L324.9,76.2z M316.4,82.1
			c0,1.6,0.5,3.7,3.1,3.7c3.5,0,4.5-3.8,4.5-5.7c0-1.7-0.7-3.5-3.2-3.5C318.1,76.6,316.4,79.1,316.4,82.1z"/>
		<path class="st4" d="M335,77.3c0,0.1,0,0.1-0.1,0.2l-0.4,0.2c-0.1,0-0.2,0-0.3-0.1c-0.5-0.3-1.2-0.9-2.4-0.9
			c-1.6,0-1.7,1.1-1.7,1.4c0,0.8,0.7,1.4,2,2.4c1,0.7,2.1,1.6,2.1,3.3c0,1-0.6,3.6-4.5,3.6c-1.2,0-3-0.2-3.7-0.6
			c-0.2-0.1-0.2-0.2-0.2-0.3v-1.4c0-0.1,0-0.1,0.1-0.2l0.5-0.2c0.1,0,0.2,0,0.3,0.1c0.4,0.4,1.5,1.1,2.8,1.1c1.6,0,2.1-1.1,2.1-1.7
			c0-0.8-0.5-1.3-1.7-2.1c-1.6-1.2-2.4-2-2.4-3.4c0-2.1,1.9-3.4,4.3-3.4c1.4,0,2.9,0.4,3.1,0.6c0.1,0.1,0.1,0.2,0.1,0.3L335,77.3
			L335,77.3L335,77.3z"/>
		<path class="st4" d="M349.3,77.4c0,0.2-0.1,0.2-0.2,0.2h-0.3c-0.1,0-0.2,0-0.6-0.3c-1.1-0.7-2.2-0.7-2.8-0.7
			c-3.7,0-4.6,3.3-4.6,5.3c0,1.6,0.5,2.5,1.2,3.1c0.6,0.5,1.4,0.8,2.4,0.8c0.5,0,1.6-0.1,2.7-0.6c0.1-0.1,0.5-0.3,0.6-0.3
			c0,0,0.4,0.2,0.4,0.4l-0.4,1.3c-0.1,0.1-0.1,0.2-0.5,0.3c-0.8,0.2-2,0.4-3.3,0.4c-4.3,0-5.7-2.7-5.7-5.2c0-3.9,3.3-6.9,7.7-6.9
			c1.8,0,3.4,0.5,3.5,0.7c0.1,0,0.1,0.1,0.1,0.3L349.3,77.4L349.3,77.4L349.3,77.4z"/>
		<path class="st4" d="M359.8,76.2c1.1,0.9,1.8,2.3,1.8,3.8c0,3.4-2.5,7.2-7.6,7.2c-1.2,0-2.5-0.2-3.5-0.9c-1.5-1.1-1.8-2.9-1.8-4
			c0-1.3,0.4-3.6,2-5.1c1.2-1.2,3-2.1,5.3-2.1C357.5,75.1,358.7,75.3,359.8,76.2L359.8,76.2L359.8,76.2z M351.3,82.1
			c0,1.6,0.5,3.7,3.1,3.7c3.5,0,4.5-3.8,4.5-5.7c0-1.7-0.7-3.5-3.2-3.5S351.3,79.1,351.3,82.1z"/>
		<path class="st4" d="M366.2,75.3L364,85.5h5.8l-0.4,1.6h-8.3l2.5-11.7L366.2,75.3L366.2,75.3z"/>
		<path class="st4" d="M380.9,76.2c1.1,0.9,1.8,2.3,1.8,3.8c0,3.4-2.5,7.2-7.6,7.2c-1.2,0-2.5-0.2-3.5-0.9c-1.5-1.1-1.8-2.9-1.8-4
			c0-1.3,0.4-3.6,2-5.1c1.2-1.2,3-2.1,5.3-2.1C378.6,75.1,379.8,75.3,380.9,76.2L380.9,76.2L380.9,76.2z M372.4,82.1
			c0,1.6,0.5,3.7,3.1,3.7c3.5,0,4.5-3.8,4.5-5.7c0-1.7-0.7-3.5-3.2-3.5C374.1,76.6,372.4,79.1,372.4,82.1z"/>
		<path class="st4" d="M387.3,75.3l2.2,8.4l5.6-8.4h2.3L395.7,87h-2.5l1.3-8.3l-5.4,8.1l-1.3,0.2l-2-8.6l-2,8.6h-2l3.4-11.7
			C385.2,75.3,387.3,75.3,387.3,75.3z"/>
		<path class="st4" d="M399.6,75.3c0.6,0,3-0.1,3.7-0.1c1.2,0,3.7,0,3.7,2.3c0,1.4-1.1,2.4-2.4,2.8c1.4,0.3,2.2,1.2,2.2,2.6
			c0,1.3-0.7,2.6-2,3.3c-1.3,0.7-2.9,0.7-3.8,0.7h-4L399.6,75.3C399.6,75.4,399.6,75.4,399.6,75.3L399.6,75.3z M399.8,85.6
			c1.6,0,2,0,2.4-0.1c2-0.4,2-2.1,2-2.3c0-0.3-0.1-1-0.7-1.4c-0.5-0.3-1.1-0.3-2.4-0.3h-0.4L399.8,85.6
			C399.8,85.6,399.8,85.6,399.8,85.6z M401,80.1h0.3c0.5,0,1.5,0,2.1-0.4c0.7-0.4,1-1.2,1-1.8c0-0.7-0.4-1.2-1.4-1.2h-1.3L401,80.1
			L401,80.1z"/>
		<path class="st4" d="M412.1,75.3L409.6,87h-2.5l2.5-11.7H412.1z"/>
		<path class="st4" d="M419.7,75.3L422,87h-2.6l-0.5-3.3h-4.4l-2,3.3h-2.3l7.6-11.7H419.7z M418.6,82.3l-0.7-4.5l-2.7,4.5H418.6
			L418.6,82.3z"/>
		<path class="st4" d="M427,75.3l4.5,8l1.6-8h2L432.3,87h-1.5l-4.9-8.4l-1.7,8.4h-2l2.9-11.7H427z"/>
		<path class="st4" d="M445.7,76.2c1.1,0.9,1.8,2.3,1.8,3.8c0,3.4-2.5,7.2-7.6,7.2c-1.2,0-2.5-0.2-3.5-0.9c-1.5-1.1-1.8-2.9-1.8-4
			c0-1.3,0.4-3.6,2-5.1c1.2-1.2,3-2.1,5.3-2.1C443.3,75.1,444.6,75.3,445.7,76.2L445.7,76.2L445.7,76.2z M437.2,82.1
			c0,1.6,0.5,3.7,3.1,3.7c3.5,0,4.5-3.8,4.5-5.7c0-1.7-0.7-3.5-3.2-3.5C438.9,76.6,437.2,79.1,437.2,82.1z"/>
		<path class="st4" d="M455.8,77.3c0,0.1,0,0.1-0.1,0.2l-0.4,0.2c-0.1,0-0.2,0-0.3-0.1c-0.5-0.3-1.2-0.9-2.4-0.9
			c-1.6,0-1.7,1.1-1.7,1.4c0,0.8,0.7,1.4,2,2.4c1,0.7,2.1,1.6,2.1,3.3c0,1-0.6,3.6-4.5,3.6c-1.2,0-3-0.2-3.7-0.6
			c-0.2-0.1-0.2-0.2-0.2-0.3v-1.4c0-0.1,0-0.1,0.1-0.2l0.5-0.2c0.1,0,0.2,0,0.3,0.1c0.4,0.4,1.5,1.1,2.8,1.1c1.6,0,2.1-1.1,2.1-1.7
			c0-0.8-0.5-1.3-1.7-2.1c-1.6-1.2-2.4-2-2.4-3.4c0-2.1,1.9-3.4,4.3-3.4c1.4,0,2.9,0.4,3.1,0.6c0.1,0.1,0.1,0.2,0.1,0.3L455.8,77.3
			L455.8,77.3L455.8,77.3z"/>
	</g>
</g>
</svg>
