<?xml version="1.0" encoding="UTF-8"?>
<svg id="Capa_2" data-name="Capa 2" xmlns="http://www.w3.org/2000/svg" viewBox="0 0 454.3 91.86">
  <defs>
    <style>
      .cls-1 {
        fill: #fff;
      }

      .cls-2, .cls-3 {
        fill-rule: evenodd;
      }

      .cls-2, .cls-3, .cls-4 {
        fill: none;
        stroke: #fafaf5;
        stroke-miterlimit: 10;
      }

      .cls-3 {
        stroke-width: .75px;
      }

      .cls-5 {
        fill: #fafaf5;
      }
    </style>
  </defs>
  <g id="Capa_2-2" data-name="Capa 2">
    <g>
      <path class="cls-2" d="m21.19,33.67c-2.29-3.03-6.46-8.61-6.76-9.78-.4-1.27-.1-3.13,7.75,2.15,3.68,2.45,13.21,8.81,22.36,20.94,7.65,10.08,9.94,20.06,18.08,22.7.99.29,2.09.49,3.18.68,11.33,1.17,29.41-1.17,43.12.1,1.49-4.89,2.19-10.08,2.19-15.36,0-30.14-24.74-54.6-55.34-54.6C35.9.5,18.51,10.77,8.77,26.23c3.97,2.15,8.25,4.7,12.42,7.44"/>
      <path class="cls-3" d="m3.55,36.56C1.47,42.33.38,48.49.38,54.95c0,5.68.89,11.15,2.48,16.34,19.57-6.95,12.42-23.09.7-34.74"/>
      <path class="cls-5" d="m50.01,44.48c8.35,10.47,11.03,20.94,19.67,23.48.79.2,1.49.29,2.29.49-6.16-3.62-8.94-12.33-15.9-21.04-9.44-11.94-19.18-18-22.85-20.35-2.88-1.76-4.77-2.74-5.96-3.13,4.77,2.94,13.91,9.39,22.75,20.55"/>
      <path class="cls-1" d="m182.66,26.38c0,.49-.1.49-.5.59l-2.09.68c-.5.1-.6.1-1.29-.29-2.29-1.47-5.76-3.62-12.02-3.62-8.05,0-8.45,4.6-8.45,5.77,0,3.42,3.38,5.77,9.94,9.69,4.87,2.94,10.43,6.75,10.43,13.41,0,4.01-3.08,14.78-22.16,14.78-6.16,0-14.8-.98-18.28-2.25-.79-.29-.79-.59-.79-1.27l-.1-5.87c0-.49.1-.49.6-.68l2.48-.78c.6-.2.89-.1,1.59.49,1.99,1.57,7.75,4.4,13.91,4.4,8.15,0,10.33-4.31,10.33-7.05,0-3.13-2.38-5.19-8.35-8.81-8.15-4.99-11.92-8.12-11.92-13.8,0-8.81,9.24-13.99,21.46-13.99,7.05,0,14.51,1.86,15.6,2.25.6.2.6.59.5,1.17l-.89,5.19h0Z"/>
      <path class="cls-1" d="m226.27,18.45l11.23,47.95h-13.12l-2.78-13.7h-21.96l-10.13,13.7h-11.62l37.95-47.95h10.43Zm-5.56,28.57l-3.58-18.4-13.31,18.4h16.89Z"/>
      <polygon class="cls-1" points="295.63 18.45 293.94 25.11 272.87 25.11 262.04 66.4 249.42 66.4 260.35 25.11 239.39 25.11 241.18 18.45 295.63 18.45"/>
      <polygon class="cls-1" points="340.64 18.45 338.95 24.91 312.12 24.91 308.54 38.41 332.79 38.41 331.1 44.48 306.95 44.48 302.88 59.94 332.09 59.94 330.4 66.4 288.57 66.4 301.29 18.45 340.64 18.45"/>
      <polygon class="cls-1" points="361.6 18.45 384.25 51.33 392.1 18.45 402.14 18.45 388.13 66.4 380.78 66.4 356.53 31.86 347.89 66.4 337.85 66.4 352.06 18.45 361.6 18.45"/>
      <path class="cls-1" d="m442.58,18.45l11.23,47.95h-13.12l-2.78-13.7h-21.96l-10.13,13.7h-11.62l37.95-47.95h10.43Zm-5.56,28.57l-3.58-18.4-13.31,18.4h16.89Z"/>
      <path class="cls-1" d="m170.44,75.01l-2.19,9.98h5.76l-.4,1.57h-8.25l2.58-11.45h2.48v-.1Z"/>
      <path class="cls-1" d="m182.46,75.01l2.29,11.45h-2.58l-.6-3.23h-4.37l-1.99,3.23h-2.29l7.55-11.45h1.99Zm-1.19,6.85l-.7-4.4-2.68,4.4h3.38Z"/>
      <path class="cls-1" d="m196.77,75.01l2.29,11.45h-2.58l-.6-3.23h-4.37l-1.99,3.23h-2.29l7.55-11.45h1.99Zm-1.09,6.85l-.7-4.4-2.68,4.4h3.38Z"/>
      <path class="cls-1" d="m209.88,75.01l-.3,1.57h-5.46l-.7,3.23h4.87l-.3,1.47h-4.87l-.79,3.72h5.86l-.3,1.57h-8.35l2.58-11.45h7.75v-.1h0Z"/>
      <path class="cls-1" d="m211.27,86.56h-2.48l2.58-11.45c.7,0,1.59-.1,3.97-.1,1.99,0,2.68.2,3.38.78.5.39.89,1.08.89,1.96,0,2.05-1.59,3.03-3.48,3.42,1.29,3.72,1.59,4.31,3.28,4.4v.1l-.2.68q-.1.2-.4.29c-.2.1-.5.1-.89.1-2.48,0-3.08-2.05-4.07-5.19h-1.39l-1.19,4.99h0Zm1.29-6.26c.3,0,.6.1,1.09.1.7,0,3.18,0,3.18-2.45,0-1.57-.99-1.57-3.38-1.47,0-.1-.89,3.82-.89,3.82Z"/>
      <path class="cls-1" d="m230.35,75.89c1.09.88,1.79,2.25,1.79,3.72,0,3.33-2.58,7.05-7.55,7.05-1.19,0-2.48-.2-3.48-.88-1.59-1.08-1.79-2.84-1.79-3.91,0-1.27.4-3.52,1.99-4.99,1.19-1.17,2.98-2.05,5.27-2.05,1.39,0,2.68.2,3.78,1.08h0Zm-8.45,5.77c0,1.57.5,3.62,3.08,3.62,3.48,0,4.47-3.72,4.47-5.58,0-1.66-.7-3.42-3.18-3.42s-4.37,2.45-4.37,5.38Z"/>
      <path class="cls-1" d="m236.71,75.01l-2.19,9.98h5.76l-.4,1.57h-8.25l2.58-11.45h2.48v-.1h0Z"/>
      <path class="cls-1" d="m245.25,75.01l-2.48,11.45h-2.48l2.58-11.45h2.38Zm3.48-3.52v.49l-4.07,2.45-.99-.2,2.78-3.52,2.29.78h0Z"/>
      <path class="cls-1" d="m249.03,75.01l4.57,7.83,1.59-7.83h1.99l-2.78,11.45h-1.59l-4.87-8.22-1.69,8.22h-1.99l2.88-11.45h1.89Z"/>
      <path class="cls-1" d="m266.51,75.01l-.3,1.57h-5.37l-.7,3.23h4.87l-.3,1.47h-4.77l-.79,3.72h5.86l-.3,1.57h-8.35l2.48-11.45h7.65v-.1h0Z"/>
      <path class="cls-1" d="m273.87,75.01l2.29,11.45h-2.58l-.5-3.23h-4.37l-1.99,3.23h-2.29l7.55-11.45h1.89Zm-1.19,6.85l-.7-4.4-2.68,4.4h3.38Z"/>
      <path class="cls-1" d="m282.41,75.01c.7,0,2.98-.1,3.87-.1,1.59,0,2.98,0,4.17.78.89.59,1.99,1.86,1.99,4.01,0,3.23-2.29,5.97-5.56,6.56-.5.1-1.19.2-2.29.2h-4.67l2.48-11.45q0,.1,0,0Zm.3,9.98c.6,0,1.09.1,1.59.1,1.39,0,2.38-.2,3.28-.68,1.39-.78,2.19-2.84,2.19-4.6,0-1.17-.3-2.35-1.39-2.94-.79-.39-1.59-.39-3.87-.39l-1.79,8.51h0Z"/>
      <path class="cls-1" d="m302.28,75.01l-.3,1.57h-5.37l-.7,3.23h4.87l-.3,1.47h-4.97l-.79,3.72h5.86l-.3,1.57h-8.35l2.48-11.45h7.85v-.1h0Z"/>
      <path class="cls-1" d="m309.54,75.01l-2.19,9.98h5.76l-.4,1.57h-8.25l2.48-11.45h2.58v-.1Z"/>
      <path class="cls-1" d="m324.24,75.89c1.09.88,1.79,2.25,1.79,3.72,0,3.33-2.48,7.05-7.55,7.05-1.19,0-2.48-.2-3.48-.88-1.49-1.08-1.79-2.84-1.79-3.91,0-1.27.4-3.52,1.99-4.99,1.19-1.17,2.98-2.05,5.27-2.05,1.39,0,2.68.2,3.78,1.08h0Zm-8.45,5.77c0,1.57.5,3.62,3.08,3.62,3.48,0,4.47-3.72,4.47-5.58,0-1.66-.7-3.42-3.18-3.42-2.68,0-4.37,2.45-4.37,5.38Z"/>
      <path class="cls-1" d="m334.28,76.97q0,.1-.1.2l-.4.2q-.1,0-.3-.1c-.5-.29-1.19-.88-2.38-.88-1.59,0-1.69,1.08-1.69,1.37,0,.78.7,1.37,1.99,2.35.99.68,2.09,1.57,2.09,3.23,0,.98-.6,3.52-4.47,3.52-1.19,0-2.98-.2-3.68-.59-.2-.1-.2-.2-.2-.29v-1.37q0-.1.1-.2l.5-.2c.1,0,.2,0,.3.1.4.39,1.49,1.08,2.78,1.08,1.59,0,2.09-1.08,2.09-1.66,0-.78-.5-1.27-1.69-2.05-1.59-1.17-2.38-1.96-2.38-3.33,0-2.05,1.89-3.33,4.27-3.33,1.39,0,2.88.39,3.08.59.1.1.1.2.1.29v1.08h0Z"/>
      <path class="cls-1" d="m348.48,77.06c0,.2-.1.2-.2.2h-.3c-.1,0-.2,0-.6-.29-1.09-.68-2.19-.68-2.78-.68-3.68,0-4.57,3.23-4.57,5.19,0,1.57.5,2.45,1.19,3.03.6.49,1.39.78,2.38.78.5,0,1.59-.1,2.68-.59.1-.1.5-.29.6-.29,0,0,.4.2.4.39l-.4,1.27c-.1.1-.1.2-.5.29-.79.2-1.99.39-3.28.39-4.27,0-5.66-2.64-5.66-5.09,0-3.82,3.28-6.75,7.65-6.75,1.79,0,3.38.49,3.48.68.1,0,.1.1.1.29l-.2,1.17h0Z"/>
      <path class="cls-1" d="m358.92,75.89c1.09.88,1.79,2.25,1.79,3.72,0,3.33-2.48,7.05-7.55,7.05-1.19,0-2.48-.2-3.48-.88-1.49-1.08-1.79-2.84-1.79-3.91,0-1.27.4-3.52,1.99-4.99,1.19-1.17,2.98-2.05,5.27-2.05,1.49,0,2.68.2,3.78,1.08h0Zm-8.45,5.77c0,1.57.5,3.62,3.08,3.62,3.48,0,4.47-3.72,4.47-5.58,0-1.66-.7-3.42-3.18-3.42s-4.37,2.45-4.37,5.38Z"/>
      <path class="cls-1" d="m365.28,75.01l-2.19,9.98h5.76l-.4,1.57h-8.25l2.48-11.45h2.58v-.1Z"/>
      <path class="cls-1" d="m379.88,75.89c1.09.88,1.79,2.25,1.79,3.72,0,3.33-2.48,7.05-7.55,7.05-1.19,0-2.48-.2-3.48-.88-1.49-1.08-1.79-2.84-1.79-3.91,0-1.27.4-3.52,1.99-4.99,1.19-1.17,2.98-2.05,5.27-2.05,1.49,0,2.68.2,3.78,1.08h0Zm-8.45,5.77c0,1.57.5,3.62,3.08,3.62,3.48,0,4.47-3.72,4.47-5.58,0-1.66-.7-3.42-3.18-3.42-2.68,0-4.37,2.45-4.37,5.38Z"/>
      <path class="cls-1" d="m386.24,75.01l2.19,8.22,5.56-8.22h2.29l-1.69,11.45h-2.48l1.29-8.12-5.37,7.93-1.29.2-1.99-8.42-1.99,8.42h-1.99l3.38-11.45h2.09Z"/>
      <path class="cls-1" d="m398.46,75.01c.6,0,2.98-.1,3.68-.1,1.19,0,3.68,0,3.68,2.25,0,1.37-1.09,2.35-2.38,2.74,1.39.29,2.19,1.17,2.19,2.54,0,1.27-.7,2.54-1.99,3.23s-2.88.68-3.78.68h-3.97l2.58-11.35q0,.1,0,0Zm.2,10.08c1.59,0,1.99,0,2.38-.1,1.99-.39,1.99-2.05,1.99-2.25,0-.29-.1-.98-.7-1.37-.5-.29-1.09-.29-2.38-.29h-.4l-.89,4.01h0Zm1.19-5.38h.3c.5,0,1.49,0,2.09-.39.7-.39.99-1.17.99-1.76,0-.68-.4-1.17-1.39-1.17h-1.29l-.7,3.33h0Z"/>
      <path class="cls-1" d="m410.88,75.01l-2.48,11.45h-2.48l2.48-11.45h2.48Z"/>
      <path class="cls-1" d="m418.43,75.01l2.29,11.45h-2.58l-.5-3.23h-4.37l-1.99,3.23h-2.29l7.55-11.45h1.89Zm-1.09,6.85l-.7-4.4-2.68,4.4h3.38Z"/>
      <path class="cls-1" d="m425.69,75.01l4.47,7.83,1.59-7.83h1.99l-2.78,11.45h-1.49l-4.87-8.22-1.69,8.22h-1.99l2.88-11.45h1.89Z"/>
      <path class="cls-1" d="m444.27,75.89c1.09.88,1.79,2.25,1.79,3.72,0,3.33-2.48,7.05-7.55,7.05-1.19,0-2.48-.2-3.48-.88-1.49-1.08-1.79-2.84-1.79-3.91,0-1.27.4-3.52,1.99-4.99,1.19-1.17,2.98-2.05,5.27-2.05,1.39,0,2.68.2,3.78,1.08h0Zm-8.45,5.77c0,1.57.5,3.62,3.08,3.62,3.48,0,4.47-3.72,4.47-5.58,0-1.66-.7-3.42-3.18-3.42-2.68,0-4.37,2.45-4.37,5.38Z"/>
      <path class="cls-1" d="m454.3,76.97q0,.1-.1.2l-.4.2q-.1,0-.3-.1c-.5-.29-1.19-.88-2.38-.88-1.59,0-1.69,1.08-1.69,1.37,0,.78.7,1.37,1.99,2.35.99.68,2.09,1.57,2.09,3.23,0,.98-.6,3.52-4.47,3.52-1.19,0-2.98-.2-3.68-.59-.2-.1-.2-.2-.2-.29v-1.37q0-.1.1-.2l.5-.2c.1,0,.2,0,.3.1.4.39,1.49,1.08,2.78,1.08,1.59,0,2.09-1.08,2.09-1.66,0-.78-.5-1.27-1.69-2.05-1.59-1.17-2.38-1.96-2.38-3.33,0-2.05,1.89-3.33,4.27-3.33,1.39,0,2.88.39,3.08.59.1.1.1.2.1.29v1.08h0Z"/>
      <path class="cls-4" d="m139.6,77.26c-3.58-.29-17.69-.29-20.27-2.74-1.89-1.76-4.77-3.23-7.25-3.62-.99-.1-1.99-.29-2.98-.39-13.71-1.27-31.89,1.08-43.12-.1-1.09-.1-2.19-.29-3.18-.68-8.15-2.54-10.43-12.52-18.08-22.7-9.24-12.04-18.78-18.4-22.45-20.84-7.85-5.28-8.15-3.42-7.75-2.15.4,1.08,4.47,6.75,6.76,9.78-4.17-2.74-8.45-5.38-12.52-7.53-2.09,3.33-3.78,6.85-5.17,10.57,11.72,11.64,18.88,27.79-.7,34.64,2.19,6.75,5.66,13.01,10.13,18.4,1.39,1.66,2.38,1.47,2.38,1.47,8.05-.98,16.69-4.4,23.85-6.07,11.62-2.84,23.55-6.36,35.77-6.16,9.44.2,19.47,2.15,29.21,2.74,3.28.2,6.66.29,9.84.1,4.77-.29,22.16-1.17,26.93-1.47,1.19-.1,10.33.1,10.04-.29-1.69-2.64-8.84-2.74-11.43-2.94"/>
    </g>
  </g>
</svg>